<?xml version="1.0" encoding="UTF-8"?>
<svg version="1.1" xmlns="http://www.w3.org/2000/svg" width="492" height="492">
<path d="M0 0 C0.80824219 -0.02384766 1.61648437 -0.04769531 2.44921875 -0.07226562 C14.28149259 -0.04431537 24.36483144 6.58121217 34.25 12.4375 C35.959473 13.43699026 37.66895305 14.4364687 39.37884521 15.4352417 C41.1370143 16.46339466 42.89333331 17.49465221 44.64941406 18.52636719 C50.12235189 21.73777308 55.62548033 24.89691876 61.125 28.0625 C63.29180229 29.31226489 65.45846868 30.56226543 67.625 31.8125 C69.23375 32.740625 69.23375 32.740625 70.875 33.6875 C91.45833333 45.5625 112.04166667 57.4375 132.625 69.3125 C133.69766113 69.93133057 134.77032227 70.55016113 135.87548828 71.18774414 C138.04057071 72.43685518 140.20560982 73.68604129 142.37060547 74.93530273 C148.90577236 78.70612057 155.44244724 82.47430366 161.98071289 86.23974609 C164.14772457 87.4893663 166.31359279 88.74097168 168.47827148 89.99462891 C173.89300349 93.13049148 179.3198695 96.23981868 184.77734375 99.30078125 C186.9140643 100.51301766 189.05078311 101.72525713 191.1875 102.9375 C192.1563916 103.47189697 193.1252832 104.00629395 194.12353516 104.55688477 C202.51750348 109.35102175 210.09840332 115.41826558 214.5625 124.1875 C215.01496094 125.04601562 215.46742188 125.90453125 215.93359375 126.7890625 C218.70308212 133.23606822 219.41839026 138.73999087 219.39242554 145.68231201 C219.39695665 146.57891328 219.40148776 147.47551455 219.40615618 148.39928555 C219.41877781 151.3922199 219.41718125 154.38497174 219.41552734 157.37792969 C219.42151401 159.528577 219.42831988 161.67922216 219.43588257 163.8298645 C219.45353632 169.66472474 219.45823771 175.4995263 219.45951414 181.33441067 C219.46093673 184.98239945 219.4652084 188.63037337 219.47050858 192.27835846 C219.48900728 205.01240484 219.49717945 217.74640938 219.49560547 230.48046875 C219.49440435 242.33824921 219.51550151 254.19584757 219.5470928 266.05358195 C219.57327175 276.24405291 219.58397207 286.43446445 219.58269465 296.62496877 C219.58218547 302.70681871 219.5878447 308.78850682 219.60905075 314.87032318 C219.62846005 320.5930008 219.62853895 326.31536264 219.61401749 332.03805161 C219.6119316 334.13299141 219.61661704 336.22795112 219.6287384 338.3228569 C219.71813027 354.84855528 217.76452726 367.32155734 206.1640625 379.890625 C201.49965436 384.46887022 195.99475303 387.41472835 190.3125 390.5625 C188.56905382 391.5479261 186.82561738 392.53336996 185.08279419 393.51989746 C183.28415686 394.53622922 181.48286773 395.54773053 179.68115234 396.55859375 C174.13388081 399.67684789 168.63215277 402.87412634 163.125 406.0625 C160.95854229 407.31286211 158.791875 408.56286119 156.625 409.8125 C155.5525 410.43125 154.48 411.05 153.375 411.6875 C124.125 428.5625 94.875 445.4375 65.625 462.3125 C64.5512915 462.93213623 63.47758301 463.55177246 62.37133789 464.19018555 C60.21753975 465.43238138 58.06308593 466.67344108 55.90795898 467.91333008 C50.88157243 470.8069181 45.86202766 473.71054504 40.86636353 476.65682983 C39.10983308 477.69204233 37.35115738 478.72351203 35.59179688 479.75390625 C33.39476153 481.04212778 31.20173078 482.33721514 29.01367188 483.640625 C19.7507613 489.05440061 11.02025861 493.29764947 0.125 493.0625 C-0.59171875 493.07796875 -1.3084375 493.0934375 -2.046875 493.109375 C-13.58285653 493.02755953 -23.27428332 486.93071556 -32.9375 481.25 C-34.16666274 480.53634233 -35.39632822 479.82354993 -36.62646484 479.11157227 C-39.14927697 477.64981152 -41.66928989 476.18340094 -44.18701172 474.71289062 C-48.71329577 472.07064735 -53.2560633 469.45722296 -57.79858398 466.84301758 C-61.01592438 464.99083252 -64.23097663 463.13473747 -67.4453125 461.27734375 C-73.92010022 457.53598344 -80.39736343 453.79892517 -86.875 450.0625 C-89.0416775 448.81251878 -91.20834417 447.56251879 -93.375 446.3125 C-94.4475 445.69375 -95.52 445.075 -96.625 444.4375 C-108.54166667 437.5625 -120.45833333 430.6875 -132.375 423.8125 C-133.44766113 423.19366943 -134.52032227 422.57483887 -135.62548828 421.93725586 C-137.79057071 420.68814482 -139.95560982 419.43895871 -142.12060547 418.18969727 C-148.65577236 414.41887943 -155.19244724 410.65069634 -161.73071289 406.88525391 C-163.89772457 405.6356337 -166.06359279 404.38402832 -168.22827148 403.13037109 C-173.64300349 399.99450852 -179.0698695 396.88518132 -184.52734375 393.82421875 C-186.6640643 392.61198234 -188.80078311 391.39974287 -190.9375 390.1875 C-191.9063916 389.65310303 -192.8752832 389.11870605 -193.87353516 388.56811523 C-203.07004402 383.31561468 -210.38384227 376.95565097 -214.875 367.25 C-215.7103125 365.49236328 -215.7103125 365.49236328 -216.5625 363.69921875 C-218.81494263 358.31614902 -219.0234488 353.60349818 -219.02217102 347.80345154 C-219.02768605 346.46239455 -219.02768605 346.46239455 -219.0333125 345.09424549 C-219.04434426 342.09204003 -219.04819235 339.08986918 -219.05200195 336.08764648 C-219.05826706 333.93744293 -219.0649139 331.78724047 -219.07191467 329.63703918 C-219.09295436 322.56923171 -219.10331795 315.50142402 -219.11328125 308.43359375 C-219.11732904 305.99948681 -219.12144597 303.56537998 -219.12563133 301.13127327 C-219.14468391 289.69382385 -219.15891401 278.25638088 -219.1672433 266.81891865 C-219.17701208 253.6230247 -219.20332211 240.42729865 -219.24374419 227.23146385 C-219.27392451 217.02832188 -219.28871406 206.82522798 -219.29202431 196.62204224 C-219.29437288 190.53007659 -219.30330823 184.43829031 -219.32848549 178.3463726 C-219.35180409 172.61143731 -219.35598403 166.87679899 -219.34572411 161.14182854 C-219.34522954 159.04204825 -219.35152652 156.94225316 -219.36528015 154.84251785 C-219.46755289 138.29699361 -217.52943719 125.81959753 -205.9140625 113.234375 C-201.24965436 108.65612978 -195.74475303 105.71027165 -190.0625 102.5625 C-188.31905382 101.5770739 -186.57561738 100.59163004 -184.83279419 99.60510254 C-183.03415686 98.58877078 -181.23286773 97.57726947 -179.43115234 96.56640625 C-173.88388081 93.44815211 -168.38215277 90.25087366 -162.875 87.0625 C-160.70854229 85.81213789 -158.541875 84.56213881 -156.375 83.3125 C-155.3025 82.69375 -154.23 82.075 -153.125 81.4375 C-123.875 64.5625 -94.625 47.6875 -65.375 30.8125 C-64.30121094 30.19286377 -63.22742188 29.57322754 -62.12109375 28.93481445 C-59.96794686 27.69290083 -57.81430576 26.45184363 -55.66015625 25.21166992 C-50.62758083 22.31298273 -45.60008192 19.40653063 -40.59057617 16.46817017 C-38.82595107 15.43366688 -37.05971361 14.40197201 -35.29296875 13.37109375 C-33.08399831 12.08105501 -30.87804279 10.78583359 -28.67578125 9.484375 C-19.20198874 3.96507206 -11.11980276 -0.14931805 0 0 Z M-31.875 104.5625 C-33.65970703 104.99755859 -33.65970703 104.99755859 -35.48046875 105.44140625 C-57.55919414 111.29802708 -77.47484195 121.76572437 -94.875 136.5625 C-95.83277344 137.37332031 -96.79054687 138.18414062 -97.77734375 139.01953125 C-105.53201866 145.75639724 -111.8986848 153.22270916 -117.875 161.5625 C-118.27315918 162.11776367 -118.67131836 162.67302734 -119.08154297 163.24511719 C-132.33553296 182.06189291 -139.93231808 203.02527768 -143.875 225.5625 C-144.04773438 226.48554932 -144.22046875 227.40859863 -144.3984375 228.35961914 C-146.79204053 244.44654445 -145.85164978 262.82657253 -141.875 278.5625 C-141.58496094 279.75101563 -141.29492188 280.93953125 -140.99609375 282.1640625 C-132.21910519 315.28893147 -112.82718911 344.63867321 -84.875 364.5625 C-83.89853516 365.26270264 -83.89853516 365.26270264 -82.90234375 365.97705078 C-64.14222526 379.23835805 -43.37366026 386.51634919 -20.875 390.5625 C-19.94381348 390.73595947 -19.01262695 390.90941895 -18.05322266 391.08813477 C18.29377043 396.51310078 56.82681409 385.61595804 86.13891602 363.9765625 C98.5401448 354.53516632 108.90030923 344.11480189 118.125 331.5625 C118.87523437 330.57121094 119.62546875 329.57992187 120.3984375 328.55859375 C122.94354595 325.17448198 122.94354595 325.17448198 125.125 321.5625 C123.89762189 317.88036568 122.98861143 317.61194575 119.69140625 315.734375 C118.27154419 314.91646484 118.27154419 314.91646484 116.82299805 314.08203125 C115.78828369 313.49808594 114.75356934 312.91414062 113.6875 312.3125 C112.62378174 311.70277344 111.56006348 311.09304688 110.46411133 310.46484375 C108.19386653 309.16387044 105.92157821 307.86645789 103.64746094 306.57226562 C100.13258327 304.57052462 96.63137902 302.5457063 93.1328125 300.515625 C83.188677 294.75135682 73.24289122 289.01799301 63.125 283.5625 C62.51914062 284.39652344 61.91328125 285.23054687 61.2890625 286.08984375 C49.06092135 302.64323338 35.21481889 312.87134176 15.125 317.5625 C14.18805298 317.82401855 14.18805298 317.82401855 13.23217773 318.09082031 C-5.01217663 322.17471472 -24.21979764 316.85302664 -39.875 307.5625 C-56.78154625 296.14108322 -67.02863879 279.88356746 -71.40332031 260.18334961 C-74.98236697 240.29666957 -70.21839298 220.39305261 -58.99609375 203.78125 C-46.77156132 187.77822572 -30.62002677 178.09062549 -10.875 174.5625 C0.51921275 173.79646349 12.30195081 173.60362655 23.125 177.5625 C24.10210937 177.9028125 25.07921875 178.243125 26.0859375 178.59375 C42.54909313 184.85736705 53.24333547 195.39168969 63.125 209.5625 C74.41660942 203.46511625 85.55069831 197.09686224 96.67074585 190.69400024 C100.71607076 188.36599926 104.77520837 186.06372214 108.83984375 183.76953125 C110.85201381 182.61797573 112.86375751 181.46567478 114.875 180.3125 C115.81512939 179.78841553 116.75525879 179.26433105 117.72387695 178.72436523 C118.57296631 178.23266846 119.42205566 177.74097168 120.296875 177.234375 C121.0403418 176.8125293 121.78380859 176.39068359 122.54980469 175.95605469 C123.06961914 175.49618164 123.58943359 175.03630859 124.125 174.5625 C124.125 162.77306801 108.67082233 149.19444257 100.69482422 141.06933594 C96.36090123 136.90930908 91.55211072 133.30788014 86.72509766 129.74511719 C85.32931814 128.71350962 83.95023472 127.65938795 82.57421875 126.6015625 C51.10258637 103.22263559 5.83006482 95.12610891 -31.875 104.5625 Z M114.125 222.5625 C114.125 227.8425 114.125 233.1225 114.125 238.5625 C108.845 238.5625 103.565 238.5625 98.125 238.5625 C98.125 243.8425 98.125 249.1225 98.125 254.5625 C103.405 254.5625 108.685 254.5625 114.125 254.5625 C114.125 259.8425 114.125 265.1225 114.125 270.5625 C119.075 270.5625 124.025 270.5625 129.125 270.5625 C129.125 265.2825 129.125 260.0025 129.125 254.5625 C134.405 254.5625 139.685 254.5625 145.125 254.5625 C145.125 249.2825 145.125 244.0025 145.125 238.5625 C139.845 238.5625 134.565 238.5625 129.125 238.5625 C129.125 233.2825 129.125 228.0025 129.125 222.5625 C124.175 222.5625 119.225 222.5625 114.125 222.5625 Z M174.125 222.5625 C174.125 227.8425 174.125 233.1225 174.125 238.5625 C168.845 238.5625 163.565 238.5625 158.125 238.5625 C158.125 243.8425 158.125 249.1225 158.125 254.5625 C163.405 254.5625 168.685 254.5625 174.125 254.5625 C174.125 259.8425 174.125 265.1225 174.125 270.5625 C179.405 270.5625 184.685 270.5625 190.125 270.5625 C190.125 265.2825 190.125 260.0025 190.125 254.5625 C195.405 254.5625 200.685 254.5625 206.125 254.5625 C206.125 249.2825 206.125 244.0025 206.125 238.5625 C200.845 238.5625 195.565 238.5625 190.125 238.5625 C190.125 233.2825 190.125 228.0025 190.125 222.5625 C184.845 222.5625 179.565 222.5625 174.125 222.5625 Z " fill="#FFFFFF" transform="translate(245.875,-0.5625)"/>
</svg>
