<?xml version="1.0" encoding="UTF-8"?>
<svg version="1.1" xmlns="http://www.w3.org/2000/svg" width="492" height="492">
<path d="M0 0 C0.8440741 -0.00970322 1.68814819 -0.01940643 2.55780029 -0.02940369 C5.28207212 -0.05425062 8.00609498 -0.06692658 10.73046875 -0.07421875 C11.66293427 -0.07683716 12.59539978 -0.07945557 13.55612183 -0.08215332 C29.65973007 -0.08698504 45.08432129 1.11340281 60.91796875 4.23828125 C61.7176709 4.3878125 62.51737305 4.53734375 63.34130859 4.69140625 C83.67916444 8.56784734 103.38517491 16.14780268 121.91796875 25.23828125 C122.92778809 25.73279785 122.92778809 25.73279785 123.95800781 26.23730469 C142.28936451 35.34289538 159.38007725 47.04436003 174.40625 60.9375 C176.49261568 62.8486499 178.61215241 64.69585606 180.7578125 66.5390625 C184.79711533 70.06656007 188.51626433 73.8142513 192.16796875 77.73828125 C192.81419189 78.43260254 193.46041504 79.12692383 194.1262207 79.84228516 C232.0029116 120.97833922 257.82699744 177.42150029 258.12109375 233.96875 C258.12815338 234.87334961 258.13521301 235.77794922 258.14248657 236.70996094 C258.36859354 274.18186993 258.36859354 274.18186993 254.91796875 290.23828125 C254.61995361 291.68146729 254.61995361 291.68146729 254.31591797 293.15380859 C243.76337711 343.27640152 220.43162883 386.23132706 184.23046875 422.30078125 C183.37849411 423.15194016 183.37849411 423.15194016 182.50930786 424.02029419 C174.42239981 432.07177375 166.29940495 439.69576901 156.75585938 446.02001953 C154.85513893 447.27992854 152.9890693 448.58275707 151.12109375 449.890625 C135.10986182 460.87946113 117.41385484 470.01139135 99.35546875 477.11328125 C98.54239258 477.44094482 97.72931641 477.7686084 96.89160156 478.10620117 C91.26300366 480.19794143 85.91480245 481.0044582 79.91796875 480.23828125 C75.8277369 478.19316533 73.4915635 476.52434416 71.91796875 472.23828125 C71.72448661 469.61653936 71.63756662 467.10017285 71.64672852 464.47900391 C71.6388884 463.31217072 71.6388884 463.31217072 71.63088989 462.12176514 C71.6206579 460.43360025 71.61487088 458.74540388 71.6130085 457.05720901 C71.6093347 454.37290151 71.59257503 451.68896019 71.57225037 449.00473022 C71.5169725 441.37285228 71.48634384 433.7409183 71.46166992 426.10888672 C71.44565387 421.43570637 71.41527867 416.76278042 71.37690544 412.08973312 C71.36536511 410.3206188 71.35932606 408.55145864 71.35922432 406.78230667 C71.35764315 386.58439484 67.87920125 370.35224598 54.91796875 354.23828125 C55.53502686 354.14853027 56.15208496 354.0587793 56.7878418 353.96630859 C89.48574953 349.11344473 123.44838388 340.68131894 144.79296875 313.23828125 C160.41794881 291.17948587 165.70192434 265.931939 166.91796875 239.23828125 C166.96050781 238.305 167.00304687 237.37171875 167.046875 236.41015625 C167.60178084 211.6983497 159.49766073 189.32841885 143.91796875 170.23828125 C143.58796875 169.90828125 143.25796875 169.57828125 142.91796875 169.23828125 C143.30839877 164.94355101 143.99400558 160.84078681 144.9375 156.63671875 C146.03636787 151.16654139 146.30157656 145.87051459 146.29296875 140.30078125 C146.29280762 139.31021729 146.29264648 138.31965332 146.29248047 137.29907227 C146.11414714 125.5619232 143.79758754 114.30043754 139.91796875 103.23828125 C120.52913641 102.03206357 95.95531955 111.45293821 80.92651367 123.88574219 C77.64158063 126.5047652 75.31608109 128.21729601 71.02270508 128.28173828 C67.73674773 127.7733478 64.57641507 127.06299553 61.35546875 126.23828125 C44.99951943 122.41892466 29.4116678 120.82895641 12.66796875 120.86328125 C11.36801971 120.86260147 11.36801971 120.86260147 10.04180908 120.86190796 C-6.45632349 120.88707775 -24.49461942 121.03187125 -40.19921875 126.59375 C-44.6296482 128.09272902 -47.86036386 129.16225693 -52.34326172 127.29785156 C-57.69944703 124.49187985 -62.68312901 121.13713185 -67.70019531 117.77392578 C-80.47172944 109.5397161 -97.24847234 102.96658866 -112.51953125 103.17578125 C-113.32527588 103.18681885 -114.13102051 103.19785645 -114.96118164 103.20922852 C-115.66106201 103.21881592 -116.36094238 103.22840332 -117.08203125 103.23828125 C-117.89909292 106.27874105 -118.70985145 109.32084808 -119.51953125 112.36328125 C-119.74962891 113.21921875 -119.97972656 114.07515625 -120.21679688 114.95703125 C-122.3242587 122.89819173 -123.32538791 130.27305431 -123.39453125 138.48828125 C-123.40685791 139.45612549 -123.41918457 140.42396973 -123.43188477 141.42114258 C-123.40107516 148.01277739 -122.37257983 153.63068735 -120.51953125 159.92578125 C-119.37153374 164.10596003 -118.54608243 167.122212 -120.50390625 171.19921875 C-122.76953125 173.80078125 -122.76953125 173.80078125 -125.359375 176.359375 C-143.39199965 195.42687051 -143.75079665 223.88093618 -143.21386719 248.3984375 C-142.25874017 276.21739636 -132.23277505 304.27836631 -112.2734375 324.015625 C-89.8623482 343.75076333 -60.92392008 350.46428941 -32.08203125 354.23828125 C-32.47890137 354.75052246 -32.87577148 355.26276367 -33.28466797 355.79052734 C-39.4730427 363.88766014 -43.59930469 371.74729504 -45.89453125 381.73828125 C-47.51877801 387.69166959 -47.51877801 387.69166959 -49.80078125 389.90625 C-52.22740551 391.08787114 -54.43809178 391.67877539 -57.08203125 392.23828125 C-58.27183594 392.52832031 -59.46164063 392.81835938 -60.6875 393.1171875 C-67.49110584 394.63895691 -74.11076041 395.93162645 -81.08203125 395.23828125 C-81.92894531 395.15707031 -82.77585938 395.07585937 -83.6484375 394.9921875 C-98.0213822 393.00900736 -108.06224032 385.10099689 -117.08203125 374.23828125 C-119.02080086 371.48566246 -120.7725046 368.69354857 -122.4921875 365.80078125 C-128.88840805 355.49139384 -139.1383586 347.14969474 -151.08203125 344.23828125 C-156.90343592 343.15755246 -161.53492079 342.7566792 -167.08203125 345.23828125 C-166.9007331 348.67621464 -166.9007331 348.67621464 -166.08203125 352.23828125 C-164.30906545 353.31868198 -164.30906545 353.31868198 -162.08203125 354.23828125 C-147.58859853 363.62300399 -138.80786732 375.85186549 -131.77539062 391.42333984 C-124.38779446 407.7711077 -114.52920591 417.78464443 -97.55078125 424.1953125 C-89.22245632 426.69943723 -81.38919933 427.55829873 -72.70703125 427.48828125 C-71.75570312 427.49601562 -70.804375 427.50375 -69.82421875 427.51171875 C-62.74803427 427.49259393 -56.02351705 426.58100531 -49.08203125 425.23828125 C-48.95503352 431.9641499 -48.86759719 438.68970826 -48.80737305 445.41650391 C-48.78226183 447.70373082 -48.74816609 449.99087775 -48.70483398 452.27783203 C-48.64403544 455.5695369 -48.61578685 458.86017895 -48.59375 462.15234375 C-48.55504036 463.68080429 -48.55504036 463.68080429 -48.51554871 465.24014282 C-48.51242441 473.18660891 -48.51242441 473.18660891 -51.48754883 476.86865234 C-55.69801165 480.71421102 -58.57494291 480.52497601 -64.1171875 480.46191406 C-68.62488115 480.12190687 -72.41833533 478.80918502 -76.58203125 477.11328125 C-77.46294434 476.76418701 -78.34385742 476.41509277 -79.25146484 476.05541992 C-123.65561592 457.85517153 -162.24750533 427.2873544 -190.08203125 388.23828125 C-190.5001709 387.66625977 -190.91831055 387.09423828 -191.34912109 386.50488281 C-210.24151201 360.58011299 -221.94197985 330.29931705 -229.08203125 299.23828125 C-229.24928711 298.51286133 -229.41654297 297.78744141 -229.58886719 297.04003906 C-233.38527937 280.21336057 -234.4628311 263.79379704 -234.39453125 246.61328125 C-234.3923761 245.63828674 -234.39022095 244.66329224 -234.38800049 243.65875244 C-234.33821556 229.63350379 -233.95942332 216.00771909 -231.08203125 202.23828125 C-230.89398926 201.26503906 -230.70594727 200.29179687 -230.51220703 199.2890625 C-223.18113599 161.72971683 -207.8436155 126.31676554 -184.08203125 96.23828125 C-183.32921875 95.28050781 -182.57640625 94.32273437 -181.80078125 93.3359375 C-177.76624713 88.2996783 -173.59071769 83.60216499 -168.95703125 79.11328125 C-167.17477046 77.33102046 -165.56974735 75.48604057 -163.95703125 73.55078125 C-125.03057055 28.78970563 -59.02430832 0.57021169 0 0 Z " fill="#FFFFFF" transform="translate(234.08203125,5.76171875)"/>
</svg>
