<?xml version="1.0" encoding="UTF-8"?>
<svg version="1.1" xmlns="http://www.w3.org/2000/svg" width="492" height="492">
<path d="M0 0 C6.61613453 -0.07669318 13.23215246 -0.12886703 19.84863281 -0.16479492 C22.09477014 -0.17978852 24.34087866 -0.2001902 26.58691406 -0.22631836 C29.83405715 -0.26311931 33.08080985 -0.27982116 36.328125 -0.29296875 C37.31613098 -0.30845261 38.30413696 -0.32393646 39.32208252 -0.33988953 C56.60400493 -0.34396827 71.23056641 6.60484753 83.52197266 18.46289062 C104.47962329 40.2582934 111.07392675 74.04674788 111.23828125 103.2265625 C111.24235678 103.90888317 111.2464323 104.59120384 111.25063133 105.2942009 C111.27141122 108.91813591 111.28573785 112.54203417 111.29516602 116.16601562 C111.30395052 119.11382193 111.32465432 122.0611452 111.35668945 125.00878906 C111.73168258 160.29076569 107.30941799 195.06850388 82.375 222.125 C68.84666701 234.94270071 52.0541562 241.13351474 33.47657776 241.12025452 C32.38954847 241.12153615 32.38954847 241.12153615 31.280559 241.12284368 C28.87003768 241.12448119 26.45958709 241.11900563 24.04907227 241.11352539 C22.31407167 241.11324312 20.57907096 241.11340203 18.84407043 241.1139679 C14.14627715 241.11425431 9.44850951 241.10838274 4.75072217 241.10139394 C-0.16334067 241.09513448 -5.07740413 241.09455455 -9.99147034 241.09336853 C-19.29147588 241.09026286 -28.59146965 241.08205977 -37.89147002 241.07201904 C-48.4815139 241.06083418 -59.07155835 241.05534147 -69.66160667 241.05032361 C-91.44107786 241.03987652 -113.22053777 241.02208997 -135 241 C-135 246.28 -135 251.56 -135 257 C-95.4 257 -55.8 257 -15 257 C-14.9175 268.323125 -14.835 279.64625 -14.75 291.3125 C-14.71358398 294.86684814 -14.67716797 298.42119629 -14.63964844 302.08325195 C-14.62158203 306.47692871 -14.62158203 306.47692871 -14.6182251 308.54411316 C-14.6121463 309.96534763 -14.5982122 311.38656355 -14.57769775 312.80766296 C-14.40650697 325.30880965 -15.69854771 335.67154921 -24.6875 344.94140625 C-50.86455434 368.24429078 -94.30442978 368.5572405 -127.16796875 368.44604492 C-130.99793871 368.4375046 -134.82642445 368.46650656 -138.65625 368.49804688 C-170.12273483 368.58688079 -213.70721626 365.10946763 -238 342 C-238 341.34 -238 340.68 -238 340 C-238.99 339.67 -239.98 339.34 -241 339 C-249.20130264 329.85503283 -255.10970837 318.34199399 -255.13371277 305.90603638 C-255.13797775 304.90272781 -255.14224274 303.89941925 -255.14663696 302.8657074 C-255.14618378 301.77581009 -255.14573059 300.68591278 -255.14526367 299.56298828 C-255.14862228 298.4061705 -255.1519809 297.24935272 -255.15544128 296.05747986 C-255.16494784 292.22841316 -255.16689473 288.39939027 -255.16796875 284.5703125 C-255.17037024 282.57574989 -255.17277357 280.58118727 -255.17542917 278.58662498 C-255.18356796 272.30774677 -255.18601422 266.02888288 -255.18530273 259.75 C-255.18470447 253.30804865 -255.19520717 246.86618172 -255.2110464 240.42425168 C-255.22420873 234.86981829 -255.2294829 229.31541215 -255.22884732 223.76096332 C-255.22859454 220.45455166 -255.23226771 217.14823072 -255.24202538 213.84183121 C-255.36397498 168.22238893 -255.36397498 168.22238893 -240 150 C-239.21882812 149.03320312 -239.21882812 149.03320312 -238.421875 148.046875 C-227.13599683 135.3930116 -208.19170655 129.79940769 -191.83716202 128.80833435 C-188.47106432 128.7311115 -185.10965701 128.71006291 -181.74267578 128.71289062 C-179.79818523 128.70240163 -177.85369469 128.69191215 -175.90920424 128.68140411 C-173.84389258 128.67210541 -171.77862093 128.66758043 -169.71329117 128.66447449 C-165.38177662 128.65768575 -161.05041283 128.63584517 -156.71896362 128.61193848 C-147.52101137 128.56323304 -138.32302716 128.5307535 -129.125 128.5 C-119.19713105 128.46678808 -109.26932217 128.43061672 -99.34154499 128.37586927 C-95.05023436 128.35275429 -90.7590296 128.33883929 -86.46766305 128.33237457 C-84.43351664 128.32782516 -82.39944718 128.31877917 -80.36532593 128.30781555 C-77.90540365 128.29458282 -75.44543062 128.2880117 -72.98547363 128.29008484 C-52.28294675 128.13613937 -34.70603925 124.11943648 -19.3125 109.8125 C-3.84719948 93.63803226 -0.76208025 71.82028378 -0.5859375 50.390625 C-0.56717758 48.92802905 -0.5476008 47.46544337 -0.5272522 46.00286865 C-0.4764334 42.19561894 -0.43654262 38.38833431 -0.39910889 34.58093262 C-0.35874978 30.67887093 -0.30780489 26.77694805 -0.2578125 22.875 C-0.16165025 15.25009603 -0.07705925 7.62512354 0 0 Z M-85.875 298.0625 C-88.84555283 303.17845209 -88.62221047 309.45930726 -87.25 315.0625 C-84.60166774 321.2860808 -81.65477972 325.0114242 -75.6328125 328.08203125 C-70.19325669 329.97861228 -64.39805877 330.06975924 -58.890625 328.3359375 C-53.11569229 325.39736555 -49.05656725 320.48063615 -46.5625 314.625 C-45.33795291 306.73347429 -46.59592803 301.44584313 -51.3125 294.94921875 C-54.78314641 290.94030079 -58.88162366 288.2272715 -64.3046875 287.83203125 C-74.15616839 287.75717197 -79.30558424 290.83614266 -85.875 298.0625 Z " fill="#FFFFFF" transform="translate(381,124)"/>
<path d="M0 0 C11.33209279 11.57519049 15.31815602 24.95341368 15.25878906 40.77758789 C15.26404602 42.51347168 15.26404602 42.51347168 15.26940918 44.28442383 C15.27818597 48.09722965 15.27238879 51.90984864 15.265625 55.72265625 C15.26697345 58.38814013 15.26891301 61.05361846 15.27142334 63.71910095 C15.27505533 69.30486044 15.2702878 74.89056694 15.26074219 80.47631836 C15.24989646 86.89618716 15.25335794 93.3159285 15.264395 99.73579413 C15.27353469 105.27755624 15.27471971 110.81928045 15.26951766 116.36104769 C15.26642954 119.65734442 15.26670659 122.95356969 15.27259064 126.24986458 C15.30749535 151.3139499 15.30116498 173.89467251 -2.8125 193.25 C-17.23712219 207.01014823 -37.32494437 211.47562308 -56.66796875 211.40063477 C-57.95450348 211.40761383 -59.24103821 211.4145929 -60.56655884 211.42178345 C-63.33394327 211.43673444 -66.10113684 211.44268503 -68.86856079 211.44125557 C-73.259078 211.43919603 -77.64934444 211.45895941 -82.03979492 211.48143005 C-90.57000451 211.52215991 -99.10019321 211.54094626 -107.63047791 211.55760193 C-118.48761374 211.58004486 -129.34468985 211.61384912 -140.20172977 211.66480106 C-144.55159536 211.68452357 -148.90132744 211.69428915 -153.25123596 211.69575322 C-155.31199994 211.69786002 -157.3726942 211.70445137 -159.43344116 211.71292114 C-161.92554852 211.72304571 -164.41769845 211.72641224 -166.90982056 211.72102356 C-188.43971264 211.85152059 -206.61109946 216.48328468 -222 232 C-234.11618632 244.81059225 -238.9730724 263.56724559 -239.20532227 280.85327148 C-239.21522186 281.49802933 -239.22512146 282.14278717 -239.23532104 282.80708313 C-239.26659289 284.9117176 -239.29155569 287.01637454 -239.31640625 289.12109375 C-239.33700553 290.59083094 -239.35800273 292.0605626 -239.37937927 293.5302887 C-239.4342931 297.37872816 -239.48383629 301.22721834 -239.53222656 305.07574463 C-239.58266723 309.01082821 -239.63823491 312.94583911 -239.69335938 316.88085938 C-239.80056495 324.58717785 -239.90209167 332.2935572 -240 340 C-246.84590354 340.12815908 -253.69149105 340.21491266 -260.53833008 340.2746582 C-262.86103881 340.29959896 -265.18367073 340.33356418 -267.50610352 340.37719727 C-288.74674124 340.76588493 -305.60027638 338.22887398 -321.81640625 323.4296875 C-334.38215094 310.26922818 -341.42843228 294.28884862 -346.25 277 C-346.49637207 276.12287354 -346.74274414 275.24574707 -346.99658203 274.34204102 C-350.29904039 261.93442879 -351.30965665 249.63322121 -351.30078125 236.828125 C-351.30468711 235.41151814 -351.3090255 233.99491242 -351.31376648 232.57830811 C-351.32115866 229.63029155 -351.32098967 226.68239489 -351.31567383 223.734375 C-351.31104477 220.75179964 -351.31796065 217.7696322 -351.33618164 214.78710938 C-351.54939701 179.5747615 -347.57106101 145.45946173 -322.61328125 118.48828125 C-305.62297604 102.31066628 -285.74323225 98.46132424 -263.14086914 98.7512207 C-261.40469622 98.76195792 -259.66851439 98.77132722 -257.93232727 98.77944946 C-253.26789407 98.80507497 -248.60381821 98.84957991 -243.93957067 98.89774728 C-239.04698432 98.94497147 -234.15429001 98.97445539 -229.26158142 99.00590515 C-220.01838836 99.06797197 -210.77539857 99.14575194 -201.53237766 99.22932547 C-191.00027267 99.32377847 -180.46806112 99.40048908 -169.93580449 99.47578681 C-148.29035989 99.63092897 -126.64515292 99.80872979 -105 100 C-105 94.39 -105 88.78 -105 83 C-144.6 83 -184.2 83 -225 83 C-225.061875 71.635625 -225.12375 60.27125 -225.1875 48.5625 C-225.21481201 44.98994385 -225.24212402 41.4173877 -225.27026367 37.73657227 C-225.28381348 33.3338623 -225.28381348 33.3338623 -225.28633118 31.26499939 C-225.2909021 29.83703294 -225.3013781 28.40907719 -225.31672668 26.98118591 C-225.44015216 14.88143324 -224.55151266 5.18968525 -216 -4 C-172.03058997 -47.55065374 -44.55343669 -38.05858966 0 0 Z M-189.375 18.25 C-192.84922182 22.72092481 -194.16361367 26.79419466 -193.875 32.44921875 C-192.94432898 38.77972056 -190.64903856 43.56600508 -186 48 C-181.78149372 50.89917264 -177.15100015 52.89487755 -172 53 C-164.28433337 51.20150831 -158.45983574 48.43472252 -154.00390625 41.7578125 C-151.10757717 36.68641917 -151.39563173 30.46783711 -152.75 24.9375 C-155.32487093 18.88655332 -158.23429081 15.24321142 -164 12 C-173.64397372 9.01116517 -182.4396904 10.92939542 -189.375 18.25 Z " fill="#FFFFFF" transform="translate(351,28)"/>
</svg>
