<?xml version="1.0" encoding="UTF-8"?>
<svg xmlns="http://www.w3.org/2000/svg" xmlns:xlink="http://www.w3.org/1999/xlink" width="35px" height="35px" viewBox="0 0 35 35" version="1.1">
<g id="surface1">
<path style=" stroke:none;fill-rule:nonzero;fill:rgb(17.647059%,84.313725%,59.215686%);fill-opacity:1;" d="M 19.664062 0 C 19.128906 0.0195312 18.625 0.25 18.261719 0.636719 L 10.378906 9.078125 L 4.757812 15.097656 C 3.9375 15.96875 3.335938 17.019531 2.992188 18.164062 C 2.917969 18.410156 2.859375 18.660156 2.808594 18.914062 C 2.59375 20.054688 2.625 21.230469 2.902344 22.359375 C 3.027344 22.867188 3.195312 23.363281 3.410156 23.839844 C 3.855469 24.835938 4.484375 25.734375 5.265625 26.492188 L 11.503906 32.605469 L 11.558594 32.664062 C 14.839844 35.820312 20.089844 35.773438 23.316406 32.554688 L 26.8125 29.066406 C 27.597656 28.28125 27.597656 27.003906 26.816406 26.214844 C 26.4375 25.835938 25.929688 25.625 25.394531 25.621094 C 24.863281 25.621094 24.347656 25.832031 23.972656 26.210938 L 20.476562 29.699219 C 18.78125 31.371094 16.070312 31.394531 14.34375 29.753906 L 14.316406 29.726562 L 8.078125 23.613281 C 7.128906 22.675781 6.664062 21.472656 6.695312 20.308594 C 6.703125 20.054688 6.734375 19.800781 6.792969 19.546875 C 6.9375 18.914062 7.253906 18.328125 7.695312 17.851562 L 13.3125 11.832031 C 14.855469 10.179688 17.984375 9.980469 19.777344 11.425781 L 24.878906 15.554688 C 25.746094 16.257812 27.011719 16.121094 27.707031 15.253906 C 28.40625 14.390625 28.273438 13.121094 27.40625 12.421875 L 22.304688 8.292969 C 21.136719 7.347656 19.726562 6.769531 18.257812 6.539062 L 21.199219 3.390625 C 21.75 2.796875 21.894531 1.925781 21.558594 1.183594 C 21.222656 0.445312 20.472656 -0.0195312 19.664062 0 Z M 15.484375 18.6875 C 14.949219 18.6875 14.4375 18.902344 14.058594 19.28125 C 13.679688 19.65625 13.472656 20.171875 13.472656 20.707031 C 13.472656 21.238281 13.679688 21.75 14.058594 22.128906 C 14.4375 22.507812 14.949219 22.71875 15.484375 22.71875 L 30.316406 22.71875 C 30.851562 22.71875 31.367188 22.507812 31.742188 22.128906 C 32.121094 21.75 32.332031 21.238281 32.332031 20.707031 C 32.332031 20.171875 32.121094 19.65625 31.742188 19.28125 C 31.367188 18.902344 30.851562 18.6875 30.316406 18.6875 Z M 15.484375 18.6875 "/>
</g>
</svg>
