<?xml version="1.0" encoding="UTF-8"?>
<svg version="1.1" xmlns="http://www.w3.org/2000/svg" width="492" height="492">
<path d="M0 0 C1.00772461 0.19335938 2.01544922 0.38671875 3.05371094 0.5859375 C34.67019077 6.79991352 65.33632011 18.75681593 92 37 C92.598125 37.40428223 93.19625 37.80856445 93.8125 38.22509766 C111.87911529 50.50475024 128.85577189 65.34886578 143 82 C143.7734375 82.88558594 144.546875 83.77117187 145.34375 84.68359375 C157.05372205 98.33905167 166.75852079 113.02740087 175 129 C175.41491699 129.79325684 175.82983398 130.58651367 176.25732422 131.40380859 C187.27007862 152.66295503 194.63613213 175.4814168 199 199 C199.16226074 199.82628906 199.32452148 200.65257812 199.49169922 201.50390625 C204.6327199 228.62557572 204.39664613 259.94833361 199 287 C198.80664062 288.00772461 198.61328125 289.01544922 198.4140625 290.05371094 C192.20008648 321.67019077 180.24318407 352.33632011 162 379 C161.39357666 379.8971875 161.39357666 379.8971875 160.77490234 380.8125 C148.47962224 398.90210751 133.62550698 415.78994535 117 430 C115.57880859 431.27037109 115.57880859 431.27037109 114.12890625 432.56640625 C100.8280876 444.33251506 85.71926089 453.80576572 70 462 C69.23945313 462.39928711 68.47890625 462.79857422 67.6953125 463.20996094 C46.40402104 474.24319086 23.55586292 481.62921489 0 486 C-0.82628906 486.16226074 -1.65257812 486.32452148 -2.50390625 486.49169922 C-29.62557572 491.6327199 -60.94833361 491.39664613 -88 486 C-89.00772461 485.80664062 -90.01544922 485.61328125 -91.05371094 485.4140625 C-122.65185152 479.20369092 -153.36601282 467.26434792 -180 449 C-180.60875977 448.58508301 -181.21751953 448.17016602 -181.84472656 447.74267578 C-215.91495329 424.36097137 -243.80563024 393.59737308 -263 357 C-263.60328125 355.85265381 -263.60328125 355.85265381 -264.21875 354.68212891 C-275.24766142 333.39546822 -282.63036791 310.54964884 -287 287 C-287.16226074 286.17371094 -287.32452148 285.34742188 -287.49169922 284.49609375 C-292.6327199 257.37442428 -292.39664613 226.05166639 -287 199 C-286.80664062 197.99227539 -286.61328125 196.98455078 -286.4140625 195.94628906 C-280.20008648 164.32980923 -268.24318407 133.66367989 -250 107 C-249.59571777 106.401875 -249.19143555 105.80375 -248.77490234 105.1875 C-236.47962224 87.09789249 -221.62550698 70.21005465 -205 56 C-203.57880859 54.72962891 -203.57880859 54.72962891 -202.12890625 53.43359375 C-188.8280876 41.66748494 -173.71926089 32.19423428 -158 24 C-157.23945313 23.60071289 -156.47890625 23.20142578 -155.6953125 22.79003906 C-134.40402104 11.75680914 -111.55586292 4.37078511 -88 0 C-87.17371094 -0.16226074 -86.34742188 -0.32452148 -85.49609375 -0.49169922 C-58.37442428 -5.6327199 -27.05166639 -5.39664613 0 0 Z M43.3125 102.6875 C36.71270757 111.30078842 34.32739471 120.95233674 35.22265625 131.6640625 C36.70350559 140.95171951 41.63699315 149.64988709 48.96484375 155.59375 C58.24612418 162.24886848 67.67259464 164.09892739 79 163 C82.18134194 162.23542335 84.95752695 161.23761616 88 160 C84.60507731 155.86365741 81.0840205 152.04327209 77.22265625 148.3359375 C76.38025391 147.52382812 75.53785156 146.71171875 74.66992188 145.875 C72.91346492 144.19090644 71.14760085 142.51657611 69.37304688 140.8515625 C68.53966797 140.04203125 67.70628906 139.2325 66.84765625 138.3984375 C66.08461182 137.67317871 65.32156738 136.94791992 64.53540039 136.20068359 C63 134 63 134 62.82958984 131.67944336 C64.63834624 127.53862121 67.66421503 124.84653431 70.87890625 121.73046875 C71.5655687 121.04946609 72.25223114 120.36846344 72.95970154 119.66682434 C75.15141481 117.49747152 77.35663453 115.34245164 79.5625 113.1875 C81.05234439 111.71772085 82.54128797 110.24702799 84.02929688 108.77539062 C87.67583625 105.17291443 91.33455021 101.58322936 95 98 C89.07607384 91.88327414 82.52394521 89.88053927 74.01855469 89.52294922 C61.22287863 89.38184251 52.27479121 93.72520879 43.3125 102.6875 Z M96.13256836 104.75390625 C94.86575887 106.02087507 93.6017212 107.29061889 92.33984375 108.5625 C91.67537735 109.22838135 91.01091095 109.8942627 90.3263092 110.58032227 C88.19435988 112.717891 86.06590451 114.85890218 83.9375 117 C82.49697277 118.44553973 81.05622056 119.89085528 79.61523438 121.3359375 C76.07420227 124.88802435 72.53630099 128.44320328 69 132 C72.31599075 135.93088136 75.65139165 139.77715018 79.3046875 143.40234375 C80.05234375 144.14677734 80.8 144.89121094 81.5703125 145.65820312 C82.33085937 146.41037109 83.09140625 147.16253906 83.875 147.9375 C84.65875 148.71673828 85.4425 149.49597656 86.25 150.29882812 C88.16438581 152.20154085 90.08108034 154.10186171 92 156 C99.60458065 153.12009921 103.48745997 147.15052792 107 140 C110.59633007 129.39082628 109.92102821 119.06287178 105 109 C103.473419 106.45273984 101.89467192 104.30433071 100 102 C98.45759057 101.88455247 98.45759057 101.88455247 96.13256836 104.75390625 Z M-38 185 C-39.48956224 186.36593057 -40.97915602 187.73182705 -42.46948242 189.09692383 C-43.89802204 190.40651342 -45.32410647 191.71877982 -46.75 193.03125 C-48.53719945 194.674861 -50.33786042 196.29844719 -52.15771484 197.90600586 C-59.25419573 204.19694412 -65.94940791 210.83347898 -72.625 217.5625 C-73.73543961 218.67797083 -74.84611538 219.79320661 -75.95703125 220.90820312 C-78.64074159 223.60277631 -81.32126936 226.30047673 -84 229 C-80.07711742 233.70341126 -75.98981304 238.14273951 -71.625 242.4375 C-71.07972656 242.97826172 -70.53445312 243.51902344 -69.97265625 244.07617188 C-68.65076536 245.38646723 -67.32572382 246.69358284 -66 248 C-60.55266889 243.46501737 -55.53346667 238.64316216 -50.5612793 233.59545898 C-49.74726654 232.77356079 -48.93325378 231.9516626 -48.09457397 231.1048584 C-46.33667273 229.32983235 -44.57981171 227.55377562 -42.82388878 225.77679253 C-40.03941471 222.96089697 -37.25023136 220.14972369 -34.4589386 217.34059143 C-33.4991827 216.37457562 -32.5394268 215.4085598 -31.57967091 214.44254398 C-31.09935307 213.95911002 -30.61903524 213.47567606 -30.12416232 212.97759259 C-23.63678961 206.44738136 -17.15404479 199.91267858 -10.68579102 193.36352539 C-6.30794206 188.93101898 -1.92111055 184.50761724 2.47600621 180.09422165 C4.79584186 177.76506351 7.10949294 175.43026337 9.41500282 173.08691216 C11.98949394 170.47123332 14.57932598 167.87169009 17.1730957 165.27514648 C17.9209584 164.50773636 18.66882111 163.74032623 19.43934631 162.94966125 C24.46182161 157.96511241 29.49624112 154.78150994 36 152 C32.87945814 148.70474838 30.05580171 147.30853264 25.52734375 146.62890625 C1.30822954 146.00790332 -21.48804027 169.73116654 -38 185 Z M17.10546875 172.66748047 C15.83087547 173.94163567 15.83087547 173.94163567 14.53053284 175.24153137 C12.22371817 177.54949266 9.92137419 179.86180002 7.62101746 182.17619467 C5.20767082 184.60212621 2.78857975 187.0223163 0.37011719 189.44314575 C-4.19876661 194.01822167 -8.76253236 198.59836725 -13.3244381 203.18040001 C-18.52247277 208.40086465 -23.72625352 213.61558565 -28.93050194 218.82985473 C-39.6266973 229.54690066 -50.31572966 240.27106446 -61 251 C-59.39464713 254.41059403 -57.59481099 256.61792484 -54.875 259.25 C-53.78832031 260.30960938 -53.78832031 260.30960938 -52.6796875 261.390625 C-52.12539062 261.92171875 -51.57109375 262.4528125 -51 263 C-46.30323149 261.5528407 -43.322286 258.78937375 -39.875 255.4375 C-35.86202789 251.6290395 -31.82600209 247.9569958 -27.5 244.5 C-23.33334037 241.15698239 -19.39578234 237.64886656 -15.5 234 C-10.76133536 229.56167326 -5.87880674 225.4085775 -0.8125 221.34375 C2.39849805 218.66791829 5.45029137 215.85641724 8.5 213 C12.39578234 209.35113344 16.33334037 205.84301761 20.5 202.5 C25.31460798 198.63425637 29.84504543 194.53162421 34.35302734 190.31835938 C37.96055403 186.94683911 41.62933414 183.67322203 45.4140625 180.5 C49.45502963 176.67800153 50.80933361 173.62465854 51 168 C49.84726031 164.15753438 48.84845636 161.77359256 45.875 159.0625 C33.01413894 154.30957309 25.5114762 164.18445017 17.10546875 172.66748047 Z M50 183 C48.89205078 184.03447266 48.89205078 184.03447266 47.76171875 185.08984375 C42.82789725 189.66925705 37.88374928 194.16643314 32.625 198.375 C26.89477513 202.98571639 21.56914922 207.97756638 16.20703125 213.00390625 C11.5360668 217.38116714 6.70252459 221.5514289 1.828125 225.69921875 C-5.01518479 231.53018213 -11.73983217 237.45408334 -18.34375 243.5546875 C-22.9687167 247.81237743 -27.70726257 251.9230223 -32.53125 255.953125 C-33.16305176 256.48494385 -33.79485352 257.0167627 -34.44580078 257.56469727 C-35.7101675 258.62825657 -36.97923164 259.68626204 -38.25341797 260.73803711 C-38.83752441 261.23053955 -39.42163086 261.72304199 -40.0234375 262.23046875 C-40.54856934 262.66770264 -41.07370117 263.10493652 -41.61474609 263.55541992 C-43.36670552 265.23962111 -43.36670552 265.23962111 -45 269 C-40.05 273.95 -35.1 278.9 -30 284 C-26.10864835 282.05432417 -24.21762774 280.39826579 -21.25 277.3125 C-18.2937264 274.29158484 -15.34984564 271.3573483 -12.125 268.625 C-4.47854806 262.06425117 2.65386389 254.77626429 9.17578125 247.1015625 C11.01634705 244.98116763 12.92264134 242.93126675 14.84228516 240.88256836 C20.87361417 234.42341875 26.4074088 227.66548209 31.75390625 220.63134766 C32.88333751 219.15273095 34.03424102 217.69057699 35.1875 216.23046875 C40.95372723 208.71860633 45.04349663 200.5631364 49 192 C49.42539062 191.10023438 49.85078125 190.20046875 50.2890625 189.2734375 C51.08583612 186.72551307 50.91598379 185.47315623 50 183 Z M-94.12890625 238.9609375 C-94.89254738 239.71958603 -94.89254738 239.71958603 -95.6716156 240.49356079 C-96.74977015 241.56664165 -97.82655905 242.64109605 -98.90209961 243.71679688 C-100.55368935 245.36620101 -102.21309341 247.00745634 -103.87304688 248.6484375 C-104.9171565 249.68961319 -105.96079235 250.73126424 -107.00390625 251.7734375 C-107.75384605 252.51259903 -107.75384605 252.51259903 -108.51893616 253.26669312 C-111.21695674 255.6761026 -111.21695674 255.6761026 -112 259 C-103.46049508 258.32256441 -95.25909654 256.36853593 -86.9375 254.4375 C-85.48513137 254.10435818 -84.03265811 253.77167217 -82.58007812 253.43945312 C-79.05216362 252.63155359 -75.52570504 251.81749479 -72 251 C-75.62097254 246.68954277 -79.32243352 242.54045702 -83.3125 238.5625 C-84.17488281 237.69753906 -85.03726563 236.83257812 -85.92578125 235.94140625 C-89.74910769 232.3628879 -91.06912347 235.90799295 -94.12890625 238.9609375 Z M-72.0625 261.8125 C-72.63033203 262.35970703 -73.19816406 262.90691406 -73.78320312 263.47070312 C-75.24883647 264.92226076 -76.63071132 266.45722678 -78 268 C-78 268.99 -78 269.98 -78 271 C-74.70587217 270.38753293 -71.4152553 269.75791405 -68.125 269.125 C-67.18785156 268.95097656 -66.25070313 268.77695312 -65.28515625 268.59765625 C-64.38925781 268.42363281 -63.49335938 268.24960937 -62.5703125 268.0703125 C-61.74289551 267.91320801 -60.91547852 267.75610352 -60.06298828 267.59423828 C-57.80002424 267.12252919 -57.80002424 267.12252919 -56 265 C-57.47613985 263.49702124 -58.95599157 261.99768715 -60.4375 260.5 C-61.26121094 259.6646875 -62.08492187 258.829375 -62.93359375 257.96875 C-66.98356448 254.11017675 -68.86035666 258.6396334 -72.0625 261.8125 Z M-106.62965393 293.89505005 C-113.46198926 300.72800816 -120.12282662 307.70414774 -126.70263672 314.7800293 C-130.9953243 319.36358616 -135.37244229 323.86506949 -139.7421875 328.375 C-148.24395164 337.17353826 -156.65136174 346.05620098 -165 355 C-164.04797153 356.11659733 -163.09509985 357.23247576 -162.14187622 358.34805298 C-161.61133699 358.96953531 -161.08079777 359.59101765 -160.53418159 360.23133278 C-157.1624396 364.1184147 -153.4999707 367.72637533 -149.875 371.375 C-149.07707031 372.19355469 -148.27914062 373.01210938 -147.45703125 373.85546875 C-146.68488281 374.63277344 -145.91273438 375.41007812 -145.1171875 376.2109375 C-144.42222168 376.91524902 -143.72725586 377.61956055 -143.01123047 378.34521484 C-140.94511707 380.04515617 -139.61547938 380.60500325 -137 381 C-135.60912269 377.21423461 -136.42533819 374.5157209 -137.4375 370.6875 C-139.82858205 360.61563078 -139.82858205 360.61563078 -139 357 C-137.48168945 355.76928711 -137.48168945 355.76928711 -135.48828125 354.58984375 C-134.75971924 354.15784668 -134.03115723 353.72584961 -133.28051758 353.28076172 C-129.73009326 351.28680754 -126.1262697 349.41399565 -122.5 347.5625 C-90.81494107 331.10724113 -61.45131842 311.79406026 -34 289 C-37.76061109 284.52083767 -41.61724147 280.20098257 -45.75 276.0625 C-46.23082031 275.56943359 -46.71164063 275.07636719 -47.20703125 274.56835938 C-48.4319286 273.33834407 -49.71202848 272.16380433 -51 271 C-73.74368848 271 -90.4414981 278.06153153 -106.62965393 293.89505005 Z M-170.85766602 361.74414062 C-171.64842529 362.54013672 -172.43918457 363.33613281 -173.25390625 364.15625 C-174.10791016 365.01347656 -174.96191406 365.87070312 -175.84179688 366.75390625 C-176.73962891 367.66011719 -177.63746094 368.56632812 -178.5625 369.5 C-179.91504883 370.85931641 -179.91504883 370.85931641 -181.29492188 372.24609375 C-183.53218341 374.49519265 -185.76708747 376.74658467 -188 379 C-187.67 379.66 -187.34 380.32 -187 381 C-185.20773952 381.41148491 -185.20773952 381.41148491 -183.03100586 381.50244141 C-182.19020981 381.5623526 -181.34941376 381.62226379 -180.48313904 381.68399048 C-179.11283287 381.76693863 -179.11283287 381.76693863 -177.71484375 381.8515625 C-176.78402481 381.91532074 -175.85320587 381.97907898 -174.8941803 382.04476929 C-171.9091424 382.24715587 -168.92342563 382.43620843 -165.9375 382.625 C-163.91856131 382.75954201 -161.89967995 382.89494726 -159.88085938 383.03125 C-154.92118367 383.36420209 -149.96085928 383.68519504 -145 384 C-148.31130821 380.07884322 -151.64100625 376.23224975 -155.26953125 372.59765625 C-156.01267578 371.85322266 -156.75582031 371.10878906 -157.52148438 370.34179688 C-158.27751953 369.58962891 -159.03355469 368.83746094 -159.8125 368.0625 C-160.97555664 366.89364258 -160.97555664 366.89364258 -162.16210938 365.70117188 C-162.89880859 364.96576172 -163.63550781 364.23035156 -164.39453125 363.47265625 C-165.06331299 362.80500244 -165.73209473 362.13734863 -166.42114258 361.44946289 C-168.70187092 359.35565058 -168.54287605 359.57081174 -170.85766602 361.74414062 Z " fill="#FFFFFF" transform="translate(290,3)"/>
<path d="M0 0 C2.4375 0.375 2.4375 0.375 5 1 C6.84503806 4.69007612 6.34850262 8.96370604 6 13 C4.8125 16.125 4.8125 16.125 3 18 C0.3125 18.3125 0.3125 18.3125 -2 18 C-2.625 16.25 -2.625 16.25 -3 14 C-2.690625 13.4225 -2.38125 12.845 -2.0625 12.25 C-0.91262944 9.81498 -0.88962327 8.52737094 -0.9375 5.875 C-1 2 -1 2 0 0 Z " fill="#FFFFFF" transform="translate(386,123)"/>
</svg>
