<?xml version="1.0" encoding="UTF-8"?>
<svg version="1.1" xmlns="http://www.w3.org/2000/svg" width="492" height="492">
<path d="M0 0 C5.12855017 4.36547869 9.49312304 9.48676976 13.87109375 14.5859375 C16.76594886 17.86854385 19.75750965 21.05649167 22.75 24.25 C28.87892911 30.7927614 34.95305209 37.38140561 41 44 C42.8325302 46.00073663 44.66627021 48.00036286 46.5 50 C47.41668877 50.99997974 48.33335546 51.99997972 49.25 53 C49.70375 53.495 50.1575 53.99 50.625 54.5 C65.75 71 65.75 71 67.12475586 72.49975586 C68.04220685 73.50059668 68.95968736 74.50141045 69.87719727 75.50219727 C72.15710551 77.98911261 74.43651293 80.47648315 76.71484375 82.96484375 C77.38858032 83.70033447 77.38858032 83.70033447 78.07592773 84.45068359 C78.98086088 85.43885695 79.88532364 86.42746128 80.78930664 87.41650391 C83.24937933 90.10461333 85.72432721 92.77730202 88.21875 95.43359375 C88.7557251 96.00795166 89.2927002 96.58230957 89.84594727 97.17407227 C90.8741481 98.27293332 91.90566485 99.36870526 92.94116211 100.46069336 C96.05003352 103.79037585 98.57870751 107.16485587 101 111 C100.24976563 111.13535156 99.49953125 111.27070312 98.7265625 111.41015625 C82.95477555 114.72739607 74.3508818 125.48804791 64 137 C63.15050781 137.93714844 62.30101562 138.87429687 61.42578125 139.83984375 C60.00100811 141.41809335 58.58027003 142.99999723 57.1640625 144.5859375 C53.2835006 148.91479535 49.34035458 153.18672532 45.40722656 157.46777344 C43.10291448 159.97677112 40.80158909 162.48850468 38.5 165 C37.58334808 166.00001352 36.6666814 167.00001351 35.75 168 C35.29625 168.495 34.8425 168.99 34.375 169.5 C19.25 186 19.25 186 17.8737793 187.50048828 C16.96005984 188.4978341 16.04745577 189.49620296 15.13598633 190.49560547 C12.80745327 193.04588377 10.46048502 195.57388648 8.07421875 198.0703125 C2.51903218 203.91910373 -2.41654402 209.69901315 -6 217 C-6.33773437 217.67933594 -6.67546875 218.35867187 -7.0234375 219.05859375 C-10.60258936 227.74378336 -10.33512703 239.13143173 -7.375 247.9375 C-4.13477319 255.52076765 0.30192153 261.61490237 6.2421875 267.28515625 C7.95398943 268.95511413 9.50793295 270.68373447 11.0625 272.5 C14.5611193 276.55934609 18.21013287 280.46651873 21.875 284.375 C26.5507359 289.36351257 31.17710902 294.3869886 35.734375 299.484375 C38.42379266 302.47055599 41.14634956 305.42469812 43.875 308.375 C44.63574829 309.19762329 44.63574829 309.19762329 45.41186523 310.03686523 C45.91919189 310.58544189 46.42651855 311.13401855 46.94921875 311.69921875 C53.15316761 318.4078422 59.33686793 325.1346369 65.4375 331.9375 C66.159375 332.73414063 66.88125 333.53078125 67.625 334.3515625 C69.39869272 336.32946327 71.14209256 338.32297576 72.875 340.3359375 C81.15080078 349.81452348 88.3858404 354.76200394 101 357 C98.27577817 361.54036972 95.1240684 365.03026886 91.29296875 368.6796875 C88.69274575 371.31091827 86.29475625 374.07916999 83.87133789 376.87255859 C80.87084649 380.28368476 77.74679259 383.57521224 74.625 386.875 C69.76380822 392.03596428 64.95253542 397.23046221 60.23046875 402.51953125 C57.04851352 406.05813295 53.81487946 409.54808882 50.58349609 413.04150391 C47.19283286 416.7072891 43.81035921 420.3803261 40.4375 424.0625 C39.76182983 424.80004517 39.76182983 424.80004517 39.07250977 425.55249023 C37.71482037 427.03482316 36.35736493 428.51736995 35 430 C28.84678181 436.72107106 22.69103161 443.4396258 16.49609375 450.12231445 C13.96497172 452.85571202 11.45288696 455.60309133 8.97265625 458.3828125 C8.48345703 458.92744141 7.99425781 459.47207031 7.49023438 460.03320312 C6.14662579 461.53120722 4.80942204 463.03494896 3.47265625 464.5390625 C-1.23560918 469.22501387 -5.22329437 470.76468596 -11.6875 471.3125 C-18.46216824 471.18364464 -24.1211521 468.22079455 -28.84375 463.4609375 C-30.07731454 462.11236145 -31.29576294 460.74982796 -32.5 459.375 C-33.47634399 458.29714233 -33.47634399 458.29714233 -34.47241211 457.19750977 C-36.32866535 455.14345336 -38.16619095 453.07408302 -40 451 C-41.52008065 449.31182196 -43.04077554 447.62419646 -44.5625 445.9375 C-45.58537109 444.79087891 -45.58537109 444.79087891 -46.62890625 443.62109375 C-49.7139045 440.21082386 -52.85631294 436.85611517 -56 433.5 C-60.5885836 428.6010247 -65.12175395 423.66221572 -69.59375 418.65625 C-72.69220233 415.23588054 -75.84517196 411.86831892 -79 408.5 C-83.63136537 403.55456058 -88.21559331 398.57550601 -92.7265625 393.51953125 C-94.93916558 391.06741959 -97.18495775 388.65049928 -99.43945312 386.23706055 C-117.29934759 367.07232085 -117.29934759 367.07232085 -118.375 357.75 C-117.42914482 348.29144822 -112.90076166 342.02713188 -106.3125 335.5 C-104.86255279 334.01373114 -103.41332819 332.52675698 -101.96484375 331.0390625 C-101.27374512 330.33813477 -100.58264648 329.63720703 -99.87060547 328.91503906 C-97.63605784 326.62741291 -95.49368688 324.27003734 -93.375 321.875 C-89.64651984 317.68938817 -85.83190741 313.59060158 -82 309.5 C-77.36549214 304.55128821 -72.78131475 299.56598045 -68.26171875 294.51171875 C-64.07140728 289.8582295 -59.80653832 285.27312358 -55.55273438 280.67773438 C-52.01402041 276.8541428 -48.47993896 273.02628567 -44.94921875 269.1953125 C-42.99955012 267.08022135 -41.04325686 264.97156345 -39.08203125 262.8671875 C-25.35383765 249.31716583 -25.35383765 249.31716583 -20.7109375 231.53125 C-21.77237193 222.2365269 -29.24569895 216.08736148 -35.4140625 209.66259766 C-37.83623226 207.12334642 -40.19889892 204.53114459 -42.5625 201.9375 C-43.47112594 200.94510349 -44.37997988 199.95291569 -45.2890625 198.9609375 C-46.6442655 197.48084898 -47.99937888 196.00067844 -49.35449219 194.52050781 C-54.55864692 188.83677654 -59.77047632 183.16040815 -65 177.5 C-71.13698573 170.85735983 -77.24768607 164.19088363 -83.35449219 157.52050781 C-84.71528574 156.03431356 -86.0763154 154.5483361 -87.4375 153.0625 C-87.88730225 152.57144775 -88.33710449 152.08039551 -88.80053711 151.57446289 C-91.7208756 148.38868621 -94.65025376 145.21145427 -97.58618164 142.04003906 C-98.60681598 140.93568777 -99.62555634 139.82958286 -100.64233398 138.72167969 C-102.93897818 136.21925918 -105.24883493 133.74410856 -107.6171875 131.30859375 C-113.66179449 124.97662019 -117.37546796 119.17469402 -118.4375 110.375 C-117.37784459 102.20051542 -114.15632186 97.4245558 -108.5 91.75 C-107.23254868 90.43670365 -105.96562759 89.12289539 -104.69921875 87.80859375 C-104.07192871 87.16519043 -103.44463867 86.52178711 -102.79833984 85.85888672 C-100.2498077 83.22455007 -97.77752185 80.52474585 -95.3125 77.8125 C-94.43207031 76.84957031 -93.55164063 75.88664062 -92.64453125 74.89453125 C-91.77183594 73.93933594 -90.89914063 72.98414062 -90 72 C-88.16746981 69.99926338 -86.33374439 67.99962374 -84.5 66 C-81.76092366 63.01244615 -79.02222783 60.024547 -76.28515625 57.03515625 C-71.02991799 51.29667769 -65.7613559 45.57082308 -60.48071289 39.85571289 C-56.69289322 35.75473906 -52.91820701 31.64193704 -49.14892578 27.52392578 C-46.75881457 24.91411315 -44.36376954 22.30904732 -41.9609375 19.7109375 C-41.45143555 19.15970215 -40.94193359 18.6084668 -40.41699219 18.04052734 C-39.39594379 16.93767867 -38.37317854 15.83641682 -37.34863281 14.73681641 C-35.01186432 12.22094139 -32.73778001 9.68897565 -30.5234375 7.0625 C-22.4334007 -2.50097993 -11.66473588 -6.95482366 0 0 Z " fill="#FFFFFF" transform="translate(289,12)"/>
<path d="M0 0 C7.93079981 4.48332969 14.62039284 12.63332931 20.125 19.75 C18.51568981 23.60507075 16.02644796 26.21961652 13.1875 29.25 C12.18737295 30.32410046 11.18737651 31.39832256 10.1875 32.47265625 C9.67703125 33.01809082 9.1665625 33.56352539 8.640625 34.12548828 C6.30449284 36.62945468 3.99743138 39.15933382 1.6875 41.6875 C-2.65995348 46.43385236 -7.02431963 51.16443898 -11.39208984 55.89208984 C-15.20325197 60.01869248 -19.00574289 64.15312063 -22.79638672 68.29858398 C-25.08546829 70.80157144 -27.38112776 73.29780038 -29.69140625 75.78125 C-45.17596939 91.40145902 -45.17596939 91.40145902 -51.375 111.75 C-50.81487711 124.29675264 -44.2179971 131.17924867 -35.875 139.75 C-34.75897037 141.0104282 -33.65306397 142.27997452 -32.5625 143.5625 C-28.54675072 148.19754555 -24.32703585 152.64207741 -20.1340332 157.1159668 C-16.08297919 161.44265399 -12.09121079 165.81557163 -8.140625 170.234375 C-4.9449394 173.78268798 -1.70124735 177.28577726 1.54125977 180.79125977 C6.298925 185.93490577 11.03459798 191.0984194 15.76611328 196.26611328 C17.59290903 198.2609506 19.42067974 200.25489265 21.2487793 202.24853516 C22.16347651 203.24647517 23.07770486 204.24484515 23.99145508 205.24365234 C26.32255759 207.79068243 28.66161544 210.32958164 31.015625 212.85546875 C33.74937858 215.79359346 36.44461611 218.76304979 39.125 221.75 C39.86621094 222.56597656 40.60742188 223.38195312 41.37109375 224.22265625 C44.14263104 227.47377545 46.54280258 230.34802656 47.0625 234.6875 C46.31392414 242.51635589 38.1546698 248.89508551 32.8125 254.0703125 C31.13961796 255.73544971 29.599589 257.45929132 28.0625 259.25 C24.5638807 263.30934609 20.91486713 267.21651873 17.25 271.125 C12.5742641 276.11351257 7.94789098 281.1369886 3.390625 286.234375 C0.1949394 289.78268798 -3.04875265 293.28577726 -6.29125977 296.79125977 C-9.68202272 300.45710918 -13.06459077 304.13021607 -16.4375 307.8125 C-16.88722168 308.30347168 -17.33694336 308.79444336 -17.80029297 309.30029297 C-18.70562602 310.28884515 -19.61089963 311.27745177 -20.51611328 312.26611328 C-22.3430239 314.26107604 -24.17086251 316.25518617 -25.99926758 318.2487793 C-26.9127212 319.24555415 -27.8253265 320.24310711 -28.73706055 321.24145508 C-31.08438109 323.80969003 -33.44637227 326.36160317 -35.8359375 328.890625 C-45.00203054 338.63634981 -51.52847426 346.71906787 -51.16796875 360.67578125 C-49.64680615 376.6378475 -34.01461184 388.845332 -23.6015625 399.80859375 C-20.02132344 403.58238335 -16.5284047 407.42616286 -13.06640625 411.30859375 C-10.42492655 414.25141873 -7.74693675 417.15889061 -5.0625 420.0625 C-4.55920166 420.60704834 -4.05590332 421.15159668 -3.53735352 421.71264648 C-1.45342461 423.96601665 0.63182981 426.2181498 2.71875 428.46875 C8.60905899 434.82104401 14.48284478 441.17410782 20.125 447.75 C16.2505277 456.62050238 6.98167764 465.20516879 -1.25 470.1875 C-7.62540135 471.55365743 -13.97054836 471.69208128 -19.75 468.39453125 C-27.43541718 462.4468095 -33.44979057 454.11497416 -39.49609375 446.59765625 C-42.67294632 442.79482287 -46.04903799 439.1993687 -49.43554688 435.58398438 C-52.53265465 432.25862723 -55.47114376 428.86289193 -58.3125 425.3125 C-61.82143139 420.93748028 -65.53344505 416.82979091 -69.375 412.75 C-74.0011859 407.83691885 -78.34770687 402.79878279 -82.56640625 397.52734375 C-85.22779458 394.32557201 -88.02962246 391.28765082 -90.875 388.25 C-95.31334906 383.51135857 -99.46642453 378.62880421 -103.53125 373.5625 C-106.69303441 369.76835871 -110.06045364 366.18716235 -113.43579102 362.58374023 C-116.53280084 359.258452 -119.47121684 355.86280061 -122.3125 352.3125 C-125.82143139 347.93748028 -129.53344505 343.82979091 -133.375 339.75 C-138.0011859 334.83691885 -142.34770687 329.79878279 -146.56640625 324.52734375 C-149.22779458 321.32557201 -152.02962246 318.28765082 -154.875 315.25 C-159.31334906 310.51135857 -163.46642453 305.62880421 -167.53125 300.5625 C-170.20708171 297.35150195 -173.01858276 294.29970863 -175.875 291.25 C-180.3128304 286.51186529 -184.46735094 281.63196471 -188.52734375 276.5625 C-191.21643979 273.34095399 -194.05957191 270.30177771 -196.9375 267.25 C-207.3950709 256.0726973 -214.67230561 246.96703845 -214.203125 231.19921875 C-213.13206703 219.94035939 -206.1788099 212.77376051 -198.875 204.75 C-198.08222656 203.87085938 -197.28945312 202.99171875 -196.47265625 202.0859375 C-194.99905198 200.45435457 -193.5225175 198.82541304 -192.04296875 197.19921875 C-189.80347597 194.66919718 -187.67912441 192.07093036 -185.5625 189.4375 C-181.67179292 184.62334412 -177.54499534 180.10075666 -173.31713867 175.58666992 C-170.19975274 172.23935757 -167.23940833 168.82013212 -164.375 165.25 C-160.5544151 160.48811158 -156.48432197 156.03564406 -152.31420898 151.58374023 C-149.21719916 148.258452 -146.27878316 144.86280061 -143.4375 141.3125 C-139.41053256 136.29158052 -135.08285297 131.62578183 -130.67431641 126.94384766 C-126.63231413 122.62773122 -122.87904583 118.14496369 -119.18359375 113.52734375 C-116.52220542 110.32557201 -113.72037754 107.28765082 -110.875 104.25 C-107.22611551 100.35423719 -103.71801562 96.41665716 -100.375 92.25 C-96.5544151 87.48811158 -92.48432197 83.03564406 -88.31420898 78.58374023 C-85.21719916 75.258452 -82.27878316 71.86280061 -79.4375 68.3125 C-75.41053256 63.29158052 -71.08285297 58.62578183 -66.67431641 53.94384766 C-62.63231413 49.62773122 -58.87904583 45.14496369 -55.18359375 40.52734375 C-52.52220435 37.32557071 -49.72036335 34.28766575 -46.875 31.25 C-43.20672396 27.3331833 -39.67845869 23.37236814 -36.3125 19.1875 C-33.03500128 15.13672572 -29.70501486 11.14983102 -26.25 7.25 C-25.39148438 6.2703125 -24.53296875 5.290625 -23.6484375 4.28125 C-17.08262862 -1.71120655 -8.28106004 -3.39161918 0 0 Z " fill="#FFFFFF" transform="translate(213.875,11.25)"/>
<path d="M0 0 C5.37492426 4.53882493 10.02645954 9.5719733 14.61328125 14.890625 C17.53616071 18.19249238 20.54767681 21.40717064 23.5625 24.625 C29.69137492 31.16781294 35.76555129 37.75640474 41.8125 44.375 C43.6450302 46.37573663 45.47877021 48.37536286 47.3125 50.375 C48.22918877 51.37497974 49.14585546 52.37497972 50.0625 53.375 C50.51625 53.87 50.97 54.365 51.4375 54.875 C52.8125 56.375 54.1875 57.875 55.5625 59.375 C56.01633057 59.87008057 56.47016113 60.36516113 56.93774414 60.87524414 C57.85362649 61.87440331 58.7694794 62.87358947 59.68530273 63.87280273 C62.45235235 66.89171535 65.22027586 69.90982135 67.98974609 72.92651367 C68.9092494 73.92947559 69.82755558 74.93353641 70.74462891 75.9387207 C72.99184386 78.40082004 75.25475729 80.8406004 77.55078125 83.2578125 C87.0537538 93.3661596 91.28194936 100.8506079 91.06640625 114.7890625 C90.06308603 128.95903112 78.25152265 139.21949837 68.58203125 148.61328125 C66.86081993 150.3268934 65.27004011 152.09578459 63.6875 153.9375 C60.2123616 157.97854396 56.58252059 161.86297237 52.9375 165.75 C48.26048634 170.73983486 43.63320202 175.76497279 39.07421875 180.86328125 C34.88390728 185.5167705 30.61903832 190.10187642 26.36523438 194.69726562 C24.32651252 196.900111 22.28945685 199.10448916 20.25341797 201.30981445 C19.25585785 202.38982961 18.2574926 203.46910168 17.25830078 204.54760742 C14.74556966 207.26319139 12.25231629 209.99330823 9.7890625 212.75390625 C9.05441772 213.57169556 9.05441772 213.57169556 8.30493164 214.40600586 C6.96051459 215.90467394 5.62260899 217.409176 4.28515625 218.9140625 C-0.32184214 223.49922678 -4.20174602 224.98910782 -10.56640625 225.43359375 C-18.35439255 225.2594957 -23.88732449 221.83806506 -29.1875 216.375 C-30.82596322 214.57825182 -32.41247378 212.74654766 -33.98828125 210.89453125 C-36.89462847 207.56487946 -39.91415638 204.34828093 -42.9375 201.125 C-49.06677643 194.58256854 -55.14055709 187.99358892 -61.1875 181.375 C-63.0200302 179.37426337 -64.85377021 177.37463714 -66.6875 175.375 C-67.60418877 174.37502026 -68.52085546 173.37502028 -69.4375 172.375 C-70.118125 171.6325 -70.118125 171.6325 -70.8125 170.875 C-74.9375 166.375 -74.9375 166.375 -76.31225586 164.87524414 C-77.22970685 163.87440332 -78.14718736 162.87358955 -79.06469727 161.87280273 C-81.34460551 159.38588739 -83.62401293 156.89851685 -85.90234375 154.41015625 C-86.3514209 153.91999023 -86.80049805 153.42982422 -87.26318359 152.92480469 C-88.16922534 151.93527325 -89.07450245 150.94504113 -89.97900391 149.95410156 C-92.42000708 147.28406384 -94.88091676 144.63601117 -97.37109375 142.01171875 C-107.16814193 131.6487976 -113.87050653 123.41725004 -113.48046875 108.484375 C-112.46494224 97.70625364 -107.07538884 91.36961008 -99.703125 83.95214844 C-98.00493825 82.18502756 -96.39843997 80.35560985 -94.79296875 78.50390625 C-91.23600973 74.40166673 -87.54347547 70.44370441 -83.8125 66.5 C-78.95130822 61.33903572 -74.14003542 56.14453779 -69.41796875 50.85546875 C-66.2353222 47.31609824 -63.00107073 43.82530143 -59.76879883 40.33129883 C-55.94656884 36.19927277 -52.13920903 32.0539904 -48.33911133 27.90161133 C-45.9370513 25.27855315 -43.52942234 22.66088036 -41.11328125 20.05078125 C-40.59846191 19.49438965 -40.08364258 18.93799805 -39.55322266 18.36474609 C-38.52654024 17.256084 -37.49888719 16.14831989 -36.47021484 15.04150391 C-33.50437893 11.84042306 -30.64097597 8.57413271 -27.8125 5.25 C-20.59197544 -2.91233211 -9.80052349 -4.99634531 0 0 Z " fill="#FFFFFF" transform="translate(401.1875,134.625)"/>
</svg>
