<?xml version="1.0" encoding="UTF-8"?>
<svg version="1.1" xmlns="http://www.w3.org/2000/svg" width="492" height="492">
<path d="M0 0 C1.01030273 -0.03673828 1.01030273 -0.03673828 2.04101562 -0.07421875 C11.26936914 -0.12720451 17.60524798 5.18006124 24.5 10.75 C26.09209991 12.01250034 27.68590395 13.27285411 29.28125 14.53125 C30.09335937 15.17191406 30.90546875 15.81257812 31.7421875 16.47265625 C35.60412811 19.4770733 39.54820841 22.36537806 43.5 25.25 C50.28954581 30.21495598 57.00899361 35.26166309 63.6875 40.375 C70.30688274 45.4416281 76.96253207 50.44935459 83.6875 55.375 C91.31490017 60.9616242 98.84394565 66.66776338 106.3515625 72.4140625 C112.08652727 76.79564326 117.86509563 81.11042958 123.6875 85.375 C131.30619531 90.9552484 138.83275942 96.6472608 146.32299805 102.39868164 C150.66003803 105.72050672 155.0194825 108.99691985 159.45703125 112.18359375 C180.47543982 127.28010932 180.47543982 127.28010932 183.1875 137.375 C184.23553966 146.06821316 183.40536405 153.21444671 178.1875 160.375 C171.86229015 167.58899812 163.13904476 172.90825363 155.421875 178.53125 C150.11986146 182.40533941 144.89930367 186.3807632 139.6875 190.375 C132.30147377 196.02903696 124.85554463 201.58970979 117.3515625 207.0859375 C111.41078567 211.44777032 105.5399674 215.89554548 99.6875 220.375 C92.30108208 226.02853395 84.85555534 231.58970194 77.3515625 237.0859375 C71.41078567 241.44777032 65.5399674 245.89554548 59.6875 250.375 C52.30108208 256.02853395 44.85555534 261.58970194 37.3515625 267.0859375 C31.41078567 271.44777032 25.5399674 275.89554548 19.6875 280.375 C12.30190426 286.02790465 4.85782996 291.58933838 -2.64624023 297.08374023 C-8.61211381 301.4628464 -14.50037846 305.93696794 -20.375 310.4375 C-23.84976966 313.08915456 -27.32899361 315.73483392 -30.8125 318.375 C-31.64297852 319.0045459 -32.47345703 319.6340918 -33.32910156 320.28271484 C-35.70972261 322.07692249 -38.10234782 323.85364009 -40.5 325.625 C-41.19359619 326.149729 -41.88719238 326.67445801 -42.60180664 327.21508789 C-48.92821387 331.84129689 -56.61034038 336.25341445 -64.70678711 335.75439453 C-73.83648581 334.10946099 -80.71624172 329.733908 -87.8125 324 C-89.6551265 322.55325542 -91.49889981 321.10797041 -93.34375 319.6640625 C-94.26027344 318.9412207 -95.17679688 318.21837891 -96.12109375 317.47363281 C-100.1220933 314.35384035 -104.21211274 311.36220293 -108.3125 308.375 C-115.94145104 302.790544 -123.46899697 297.08219733 -130.9765625 291.3359375 C-136.71152727 286.95435674 -142.49009563 282.63957042 -148.3125 278.375 C-155.93990017 272.7883758 -163.46894565 267.08223662 -170.9765625 261.3359375 C-176.7115291 256.95435535 -182.49015193 252.6396493 -188.3125 248.375 C-195.99712783 242.7450295 -203.59402894 237.00769792 -211.15673828 231.21508789 C-215.23316359 228.09434854 -219.3171332 224.98820776 -223.44921875 221.94140625 C-224.16827393 221.4098291 -224.8873291 220.87825195 -225.62817383 220.33056641 C-226.94073696 219.36298875 -228.25664795 218.39992473 -229.5769043 217.44287109 C-236.82816785 212.08921762 -243.49338074 206.39228137 -245.8125 197.375 C-246.9681699 188.68567065 -246.06908962 181.51238774 -240.8125 174.375 C-234.0662028 166.79238497 -225.1756149 161.1183913 -217.01171875 155.18359375 C-211.71775768 151.32589342 -206.51096063 147.36002175 -201.3125 143.375 C-193.92655143 137.72086361 -186.48054242 132.1602886 -178.9765625 126.6640625 C-173.03578567 122.30222968 -167.1649674 117.85445452 -161.3125 113.375 C-153.92608208 107.72146605 -146.48055534 102.16029806 -138.9765625 96.6640625 C-133.0357821 92.30222706 -127.16509083 87.85429729 -121.3125 83.375 C-110.80110202 75.3336937 -100.15618838 67.48439526 -89.47851562 59.66601562 C-79.45714882 52.32371096 -69.51754645 44.88800729 -59.65112305 37.33862305 C-53.13252939 32.35904994 -46.5570173 27.46388736 -39.93701172 22.62011719 C-35.71562739 19.52792434 -31.52091847 16.40555191 -27.35546875 13.23828125 C-25.99820679 12.20876343 -25.99820679 12.20876343 -24.61352539 11.15844727 C-22.8708388 9.83422168 -21.13155559 8.50550137 -19.39624023 7.17163086 C-18.21396851 6.27456421 -18.21396851 6.27456421 -17.0078125 5.359375 C-16.31703613 4.83053711 -15.62625977 4.30169922 -14.91455078 3.75683594 C-10.09310953 0.58734029 -5.66937126 0.01066674 0 0 Z " fill="#FFFFFF" transform="translate(245.8125,-0.375)"/>
<path d="M0 0 C2.92595426 0.87865435 4.65150347 2.01280041 7.04736328 3.89624023 C7.88098389 4.54286621 8.71460449 5.18949219 9.57348633 5.85571289 C10.4594751 6.55615723 11.34546387 7.25660156 12.25830078 7.97827148 C14.15176124 9.44970251 16.04631469 10.91972802 17.94189453 12.38842773 C18.89563965 13.1297998 19.84938477 13.87117187 20.83203125 14.63500977 C24.94382412 17.79930566 29.12818532 20.85987703 33.32080078 23.91577148 C40.2726818 29.00109046 47.09366548 34.23077819 53.87109375 39.5456543 C59.16182188 43.68101549 64.52732205 47.69959326 69.94580078 51.66577148 C76.95958053 56.80779806 83.94347008 61.98673692 90.88330078 67.22827148 C91.75253174 67.87844238 92.6217627 68.52861328 93.51733398 69.19848633 C108.99391968 80.93518607 108.99391968 80.93518607 110.63330078 89.79077148 C111.4398289 97.74515506 111.37564602 105.0964319 106.63330078 111.79077148 C99.9077538 119.38041443 90.98804157 125.05325267 82.83251953 130.98217773 C77.53855846 134.83987806 72.33176141 138.80574974 67.13330078 142.79077148 C59.74735221 148.44490788 52.3013432 154.00548289 44.79736328 159.50170898 C38.85658645 163.86354181 32.98576818 168.31131697 27.13330078 172.79077148 C19.74688286 178.44430543 12.30135612 184.00547342 4.79736328 189.50170898 C-1.14341983 193.86354642 -7.01401696 198.31159026 -12.86669922 202.79077148 C-19.74548557 208.05109478 -26.65129058 213.27055303 -33.61669922 218.41577148 C-34.36628906 218.97135742 -35.11587891 219.52694336 -35.88818359 220.09936523 C-51.93622049 231.90911128 -51.93622049 231.90911128 -60.92919922 232.16577148 C-62.08548828 232.21475586 -63.24177734 232.26374023 -64.43310547 232.31420898 C-73.81027903 231.06640237 -81.0719103 225.06733181 -88.30419922 219.35327148 C-90.15602729 217.91573734 -92.00891331 216.47956512 -93.86279297 215.04467773 C-95.24700439 213.96984131 -95.24700439 213.96984131 -96.65917969 212.87329102 C-100.68070153 209.78009162 -104.7694012 206.78244254 -108.86669922 203.79077148 C-116.49500189 198.20540791 -124.02317439 192.4979855 -131.53076172 186.75170898 C-138.03004262 181.78618169 -144.59537428 176.91898376 -151.19384766 172.08642578 C-158.11801162 167.00288974 -164.94447643 161.79616966 -171.76586914 156.57592773 C-179.22453198 150.87657533 -186.76729758 145.30062951 -194.36669922 139.79077148 C-192.06521225 137.48928452 -190.70364722 137.20406971 -187.61669922 136.29077148 C-179.86803906 133.52768337 -173.82417988 128.73298045 -167.36669922 123.79077148 C-165.73531908 122.5510167 -164.10380065 121.31144388 -162.47216797 120.07202148 C-159.79832907 118.03752451 -157.12656234 116.00046473 -154.45898438 113.95776367 C-148.64070842 109.5042685 -142.77862347 105.11902265 -136.86669922 100.79077148 C-130.14161704 95.86527995 -123.4861663 90.85728441 -116.86669922 85.79077148 C-109.4802813 80.13723754 -102.03475456 74.57606954 -94.53076172 69.07983398 C-88.58998489 64.71800116 -82.71916661 60.270226 -76.86669922 55.79077148 C-69.4802813 50.13723754 -62.03475456 44.57606954 -54.53076172 39.07983398 C-47.70031912 34.06479141 -40.96594234 28.92915933 -34.23779297 23.77807617 C-27.3821494 18.53928148 -20.45955496 13.39752531 -13.49365234 8.30639648 C-12.76082031 7.77014648 -12.02798828 7.23389648 -11.27294922 6.68139648 C-10.24814453 5.93792969 -10.24814453 5.93792969 -9.20263672 5.17944336 C-7.16479078 3.67961521 -7.16479078 3.67961521 -4.64794922 1.33764648 C-2.36669922 -0.20922852 -2.36669922 -0.20922852 0 0 Z " fill="#FFFFFF" transform="translate(381.36669921875,205.209228515625)"/>
<path d="M0 0 C2.69522933 1.27666818 5.05652606 2.67065529 7.43359375 4.46875 C8.07514404 4.95182617 8.71669434 5.43490234 9.37768555 5.93261719 C10.05742432 6.44985352 10.73716309 6.96708984 11.4375 7.5 C12.15268799 8.04043945 12.86787598 8.58087891 13.60473633 9.13769531 C18.8756426 13.12712387 24.11799258 17.15315786 29.3515625 21.19140625 C40.89669246 30.09064099 52.50964229 38.90081919 64.1875 47.625 C70.535735 52.36757791 76.82469775 57.17566379 83.0625 62.0625 C89.87138102 67.39284697 96.77804747 72.57080424 103.75415039 77.67993164 C109.53358767 81.91299965 115.27541237 86.1930828 121 90.5 C129.83766871 97.14389684 138.72641731 103.71567639 147.63671875 110.26171875 C150.02054547 112.01511196 152.40135017 113.77253121 154.78125 115.53125 C162.7291986 121.40349581 170.6910827 127.25638037 178.6875 133.0625 C179.40558838 133.58658447 180.12367676 134.11066895 180.86352539 134.65063477 C190.03751213 141.47651879 190.03751213 141.47651879 200.5 145.8125 C201.3559375 146.04582031 202.211875 146.27914062 203.09375 146.51953125 C203.7228125 146.67808594 204.351875 146.83664062 205 147 C203.61839226 150.2574919 202.18026874 151.90773314 199.31640625 153.9609375 C198.18682495 154.78102295 198.18682495 154.78102295 197.03442383 155.61767578 C196.21868896 156.19759277 195.4029541 156.77750977 194.5625 157.375 C192.82798201 158.63001073 191.09361111 159.88522478 189.359375 161.140625 C188.46927734 161.78064453 187.57917969 162.42066406 186.66210938 163.08007812 C182.52334865 166.06496572 178.41830837 169.09503611 174.3125 172.125 C173.53253662 172.69814941 172.75257324 173.27129883 171.94897461 173.86181641 C168.08519303 176.70440683 164.24016105 179.56794393 160.42578125 182.4765625 C159.70028076 183.02812012 158.97478027 183.57967773 158.22729492 184.14794922 C156.86818036 185.18366049 155.51260902 186.22404529 154.16137695 187.27001953 C148.25831302 191.76483363 143.70281148 193.36086019 136.1875 193.375 C135.51396484 193.39949219 134.84042969 193.42398438 134.14648438 193.44921875 C124.91813086 193.50220451 118.58225202 188.19493876 111.6875 182.625 C110.09540009 181.36249966 108.50159605 180.10214589 106.90625 178.84375 C106.09414062 178.20308594 105.28203125 177.56242188 104.4453125 176.90234375 C100.58337189 173.8979267 96.63929159 171.00962194 92.6875 168.125 C85.89795419 163.16004402 79.17850639 158.11333691 72.5 153 C65.88061726 147.9333719 59.22496793 142.92564541 52.5 138 C44.87259983 132.4133758 37.34355435 126.70723662 29.8359375 120.9609375 C24.10097273 116.57935674 18.32240437 112.26457042 12.5 108 C4.88212564 102.4203529 -2.64317541 96.72839863 -10.13330078 90.97851562 C-14.48424474 87.6467044 -18.85754051 84.35885345 -23.3046875 81.15625 C-24.15740234 80.54007812 -25.01011719 79.92390625 -25.88867188 79.2890625 C-27.48552218 78.14003275 -29.08796126 76.99870848 -30.69726562 75.8671875 C-37.79587471 70.7526617 -44.58862517 64.65258026 -47 56 C-48.01927614 47.27316382 -47.25988358 40.19183134 -42 33 C-36.1195662 26.45898883 -28.42075598 21.4704835 -21.375 16.25390625 C-16.71393469 12.79949651 -12.10433725 9.2795062 -7.5 5.75 C-6.75169922 5.17677002 -6.00339844 4.60354004 -5.23242188 4.01293945 C-3.48778259 2.67594342 -1.74381263 1.33807405 0 0 Z " fill="#FFFFFF" transform="translate(110,299)"/>
</svg>
