<?xml version="1.0" encoding="UTF-8"?>
<svg version="1.1" xmlns="http://www.w3.org/2000/svg" width="492" height="492">
<path d="M0 0 C6.1082731 1.32020514 8.96256952 4.62898072 12.9375 9.125 C13.5564917 9.80715576 14.1754834 10.48931152 14.81323242 11.19213867 C16.55467502 13.11735044 18.28046503 15.05522414 20 17 C20.70898438 17.79792969 21.41796875 18.59585938 22.1484375 19.41796875 C23.22830983 20.64740086 24.3028706 21.88152654 25.37109375 23.12109375 C28.85160176 27.13578045 32.43973477 31.05613717 36 35 C37.50028679 36.66640851 39.00028872 38.33307353 40.5 40 C41.61375 41.2375 41.61375 41.2375 42.75 42.5 C58.5 60 58.5 60 60.7421875 62.4921875 C62.26708244 64.18592894 63.79315402 65.87861169 65.3203125 67.5703125 C78.14822134 81.78972332 78.14822134 81.78972332 83 88 C81.63389732 91.03726958 80.06926193 93.20915026 77.76953125 95.609375 C77.13080078 96.28226562 76.49207031 96.95515625 75.83398438 97.6484375 C75.16689453 98.34195313 74.49980469 99.03546875 73.8125 99.75 C69.28940337 104.48462453 64.84599564 109.25698521 60.55639648 114.20507812 C58.60675314 116.45351387 56.61960264 118.666417 54.625 120.875 C53.86703125 121.71546875 53.1090625 122.5559375 52.328125 123.421875 C50.77604167 125.140625 49.22395833 126.859375 47.671875 128.578125 C44.25694362 132.36474959 40.85013474 136.15583617 37.5 140 C32.62856797 145.58979989 27.6410485 151.07534898 22.671875 156.578125 C19.27655062 160.3430085 15.88941658 164.11193551 12.5625 167.9375 C8.90942044 172.13303221 5.15494451 176.23373553 1.40625 180.34375 C-0.58648953 182.54352741 -2.5533814 184.75955218 -4.5 187 C-8.12944941 191.17729083 -11.8647902 195.25537239 -15.59375 199.34375 C-17.58648953 201.54352741 -19.5533814 203.75955218 -21.5 206 C-25.12944941 210.17729083 -28.8647902 214.25537239 -32.59375 218.34375 C-34.58648953 220.54352741 -36.5533814 222.75955218 -38.5 225 C-41.28814098 228.20899244 -44.13528185 231.35916444 -47 234.5 C-50.45575413 238.28934126 -53.8652289 242.11083698 -57.23046875 245.98046875 C-61.53869748 250.89736556 -65.94686156 255.72639032 -70.328125 260.578125 C-73.72344938 264.3430085 -77.11058342 268.11193551 -80.4375 271.9375 C-84.09057956 276.13303221 -87.84505549 280.23373553 -91.59375 284.34375 C-93.58648953 286.54352741 -95.5533814 288.75955218 -97.5 291 C-101.12944941 295.17729083 -104.8647902 299.25537239 -108.59375 303.34375 C-110.58648953 305.54352741 -112.5533814 307.75955218 -114.5 310 C-118.12944941 314.17729083 -121.8647902 318.25537239 -125.59375 322.34375 C-127.58648953 324.54352741 -129.5533814 326.75955218 -131.5 329 C-134.28814098 332.20899244 -137.13528185 335.35916444 -140 338.5 C-143.45575413 342.28934126 -146.8652289 346.11083698 -150.23046875 349.98046875 C-154.53869748 354.89736556 -158.94686156 359.72639032 -163.328125 364.578125 C-165.55605353 367.04854915 -167.77907321 369.52328091 -170 372 C-170.65355469 372.72445313 -171.30710938 373.44890625 -171.98046875 374.1953125 C-178.43781957 381.27515657 -178.43781957 381.27515657 -182 390 C-198.02938713 390.09356369 -214.05868527 390.16403795 -230.08827972 390.20724869 C-237.53160242 390.22784812 -244.97475516 390.25591826 -252.41796875 390.30175781 C-258.90771556 390.34170622 -265.39733924 390.36745185 -271.8872056 390.37635398 C-275.32158056 390.3815553 -278.75560335 390.39372468 -282.18986511 390.42292023 C-286.02978328 390.45198931 -289.86897374 390.45595433 -293.70898438 390.45410156 C-294.83971375 390.46848267 -295.97044312 390.48286377 -297.13543701 390.49768066 C-304.91249562 390.45712176 -310.31013009 389.29746522 -316.27734375 383.96484375 C-316.82519531 383.29582031 -317.37304688 382.62679688 -317.9375 381.9375 C-318.50339844 381.26589844 -319.06929688 380.59429687 -319.65234375 379.90234375 C-323.30433548 374.74721339 -322.58913872 368.0135257 -322 362 C-319.57764042 354.41991973 -311.75190822 348.14800837 -306.38916016 342.48193359 C-304.09068063 340.0299528 -301.89870479 337.48954524 -299.69921875 334.94921875 C-295.4253204 330.04651697 -291.03080529 325.24887834 -286.671875 320.421875 C-283.29614978 316.67872391 -279.92862565 312.93203528 -276.625 309.125 C-273.17283922 305.15902924 -269.61249119 301.29482354 -266.05175781 297.42675781 C-262.89302035 293.9897558 -259.79361664 290.50978679 -256.734375 286.984375 C-252.44320048 282.0746528 -248.04197892 277.26125182 -243.671875 272.421875 C-240.29614978 268.67872391 -236.92862565 264.93203528 -233.625 261.125 C-230.17283922 257.15902924 -226.61249119 253.29482354 -223.05175781 249.42675781 C-219.89302035 245.9897558 -216.79361664 242.50978679 -213.734375 238.984375 C-209.44320048 234.0746528 -205.04197892 229.26125182 -200.671875 224.421875 C-197.29614978 220.67872391 -193.92862565 216.93203528 -190.625 213.125 C-187.17283922 209.15902924 -183.61249119 205.29482354 -180.05175781 201.42675781 C-176.89302035 197.9897558 -173.79361664 194.50978679 -170.734375 190.984375 C-166.44320048 186.0746528 -162.04197892 181.26125182 -157.671875 176.421875 C-154.29614978 172.67872391 -150.92862565 168.93203528 -147.625 165.125 C-144.17283922 161.15902924 -140.61249119 157.29482354 -137.05175781 153.42675781 C-133.89302035 149.9897558 -130.79361664 146.50978679 -127.734375 142.984375 C-123.44320048 138.0746528 -119.04197892 133.26125182 -114.671875 128.421875 C-111.29614978 124.67872391 -107.92862565 120.93203528 -104.625 117.125 C-101.17283922 113.15902924 -97.61249119 109.29482354 -94.05175781 105.42675781 C-90.89302035 101.9897558 -87.79361664 98.50978679 -84.734375 94.984375 C-80.44320048 90.0746528 -76.04197892 85.26125182 -71.671875 80.421875 C-68.27655062 76.6569915 -64.88941658 72.88806449 -61.5625 69.0625 C-57.90821138 64.86557919 -54.15255027 60.7634724 -50.40234375 56.65234375 C-48.43058156 54.47539004 -46.48634663 52.28161326 -44.5625 50.0625 C-41.6011649 46.6531142 -38.55847514 43.3220569 -35.5 40 C-31.85585671 36.04137814 -28.26086283 32.0482324 -24.734375 27.984375 C-20.42147659 23.04979754 -16.00067191 18.209211 -11.6015625 13.3515625 C-7.64178113 8.9708077 -3.73303691 4.57598073 0 0 Z " fill="#FFFFFF" transform="translate(322,52)"/>
<path d="M0 0 C8.74278908 6.99423126 15.94871373 15.58375582 23.265625 24.015625 C26.79500714 28.05374691 30.40634226 32.01914681 34 36 C36.24796977 38.49687992 38.49508007 40.99453151 40.7421875 43.4921875 C42.26708244 45.18592894 43.79315402 46.87861169 45.3203125 48.5703125 C48.69912708 52.31564256 52.06895965 56.06518207 55.375 59.875 C57.85075306 62.7232622 60.38607177 65.50851288 62.9519043 68.27587891 C81.69831574 88.51775806 81.69831574 88.51775806 81.41796875 101.48046875 C80.7611121 107.0115701 78.67097736 109.92627152 75 114 C74.52240234 114.53125488 74.04480469 115.06250977 73.55273438 115.60986328 C70.24284266 119.27034486 66.86515912 122.86224922 63.46679688 126.44042969 C61.15131092 128.90236781 58.94587274 131.45354201 56.73828125 134.01171875 C54.52743511 136.54052928 52.26403557 139.01872564 50 141.5 C47.15475772 144.61907011 44.3280042 147.74755391 41.5625 150.9375 C38.13299081 154.88589474 34.59123177 158.72857458 31.04931641 162.57568359 C27.91468711 165.98616889 24.84266155 169.44167816 21.80859375 172.94140625 C18.7222052 176.45442302 15.55371222 179.89299818 12.40234375 183.34765625 C10.43058156 185.52460996 8.48634663 187.71838674 6.5625 189.9375 C3.6011649 193.3468858 0.55847514 196.6779431 -2.5 200 C-6.14414329 203.95862186 -9.73913717 207.9517676 -13.265625 212.015625 C-16.79500714 216.05374691 -20.40634226 220.01914681 -24 224 C-25.50028679 225.66640851 -27.00028872 227.33307353 -28.5 229 C-31.5 232.33333333 -34.5 235.66666667 -37.5 239 C-38.23992187 239.82242188 -38.97984375 240.64484375 -39.7421875 241.4921875 C-41.26708244 243.18592894 -42.79315402 244.87861169 -44.3203125 246.5703125 C-47.69912708 250.31564256 -51.06895965 254.06518207 -54.375 257.875 C-57.35916739 261.30332254 -60.42190688 264.65618715 -63.5 268 C-66.59775694 271.36553535 -69.6805611 274.74018561 -72.6875 278.1875 C-73.22890625 278.80367188 -73.7703125 279.41984375 -74.328125 280.0546875 C-75.55037569 281.47683901 -76.74461393 282.9232002 -77.921875 284.3828125 C-78.58703125 285.18460937 -79.2521875 285.98640625 -79.9375 286.8125 C-80.81728516 287.90498047 -80.81728516 287.90498047 -81.71484375 289.01953125 C-89.29078352 295.58534572 -99.1114293 294.40716085 -108.51367188 294.34057617 C-110.18970728 294.33972909 -111.8657438 294.34020663 -113.54177856 294.34190369 C-118.07431656 294.3427619 -122.60661477 294.32516445 -127.13909721 294.30418181 C-131.88231047 294.28538588 -136.62552966 294.28366228 -141.36877441 294.28010559 C-150.34296693 294.27079369 -159.31704937 294.24619148 -168.29119349 294.21605712 C-178.51124158 294.1824865 -188.73129501 294.16602041 -198.95138454 294.15097082 C-219.96765105 294.11964116 -240.98381858 294.0668973 -262 294 C-257.65106321 287.4101822 -257.65106321 287.4101822 -255.01171875 284.6328125 C-254.47393799 284.06151611 -253.93615723 283.49021973 -253.38208008 282.90161133 C-252.82286865 282.31532959 -252.26365723 281.72904785 -251.6875 281.125 C-250.51739257 279.88229762 -249.34811375 278.63881447 -248.1796875 277.39453125 C-247.34775879 276.51015381 -247.34775879 276.51015381 -246.49902344 275.60791016 C-244.18164597 273.12220202 -241.95816337 270.56070048 -239.73828125 267.98828125 C-237.52743511 265.45947072 -235.26403557 262.98127436 -233 260.5 C-230.13528185 257.35916444 -227.28814098 254.20899244 -224.5 251 C-220.87055059 246.82270917 -217.1352098 242.74462761 -213.40625 238.65625 C-211.41351047 236.45647259 -209.4466186 234.24044782 -207.5 232 C-204.71185902 228.79100756 -201.86471815 225.64083556 -199 222.5 C-195.54424587 218.71065874 -192.1347711 214.88916302 -188.76953125 211.01953125 C-184.46130252 206.10263444 -180.05313844 201.27360968 -175.671875 196.421875 C-172.27655062 192.6569915 -168.88941658 188.88806449 -165.5625 185.0625 C-161.91062947 180.86835635 -158.15733816 176.76905708 -154.41015625 172.66015625 C-151.82761116 169.80972966 -149.29344897 166.92174108 -146.76953125 164.01953125 C-142.46130252 159.10263444 -138.05313844 154.27360968 -133.671875 149.421875 C-130.27655062 145.6569915 -126.88941658 141.88806449 -123.5625 138.0625 C-119.90942044 133.86696779 -116.15494451 129.76626447 -112.40625 125.65625 C-110.41351047 123.45647259 -108.4466186 121.24044782 -106.5 119 C-103.71185902 115.79100756 -100.86471815 112.64083556 -98 109.5 C-94.54424587 105.71065874 -91.1347711 101.88916302 -87.76953125 98.01953125 C-83.46130252 93.10263444 -79.05313844 88.27360968 -74.671875 83.421875 C-71.27655062 79.6569915 -67.88941658 75.88806449 -64.5625 72.0625 C-60.91062947 67.86835635 -57.15733816 63.76905708 -53.41015625 59.66015625 C-50.82761116 56.80972966 -48.29344897 53.92174108 -45.76953125 51.01953125 C-41.46130252 46.10263444 -37.05313844 41.27360968 -32.671875 36.421875 C-29.27655062 32.6569915 -25.88941658 28.88806449 -22.5625 25.0625 C-18.91971208 20.87878765 -15.17628468 16.78925104 -11.4375 12.69140625 C-8.71055566 9.68040521 -6.03228216 6.63107624 -3.375 3.55859375 C-2.2934584 2.33264177 -1.156004 1.156004 0 0 Z " fill="#FFFFFF" transform="translate(411,148)"/>
<path d="M0 0 C1.03755694 -0.0039821 2.07511387 -0.00796419 3.14411193 -0.01206696 C4.84401024 -0.00332844 4.84401024 -0.00332844 6.57824993 0.00558662 C7.78717 0.00387777 8.99609007 0.00216892 10.24164408 0.00040829 C13.59389884 -0.0023164 16.94592008 0.00393409 20.29814661 0.01396441 C23.91431603 0.02260105 27.53047824 0.0196786 31.14665508 0.01815987 C37.41081545 0.01711115 43.67493416 0.02338636 49.93908405 0.03463554 C58.99598796 0.05088939 68.05287171 0.05609843 77.10978862 0.05861153 C91.80401432 0.06298881 106.49821781 0.07629882 121.19243145 0.09521675 C135.46651886 0.11357468 149.74060024 0.12773161 164.01469707 0.13623238 C164.89454715 0.13675782 165.77439723 0.13728327 166.68090943 0.13782464 C171.09485724 0.14043471 175.5088051 0.14296213 179.92275298 0.14544845 C216.54106317 0.16618199 253.15934812 0.20140843 289.77763653 0.24609566 C287.5345565 3.64846309 285.38657324 6.88064444 282.57060528 9.83203316 C281.69601665 10.75689522 281.69601665 10.75689522 280.80375957 11.70044136 C280.19701397 12.33425728 279.59026836 12.9680732 278.96513653 13.62109566 C277.70383139 14.95489145 276.44340365 16.28951755 275.18388653 17.62500191 C274.58833965 18.2555146 273.99279278 18.8860273 273.37919903 19.53564644 C270.98786271 22.08956446 268.6901521 24.71728686 266.40654278 27.36718941 C262.16792186 32.25634207 257.78604388 37.0220204 253.44951153 41.82422066 C250.07378631 45.56737175 246.70626218 49.31406038 243.40263653 53.12109566 C239.95047574 57.08706642 236.39012772 60.95127211 232.82939434 64.81933784 C229.67065688 68.25633986 226.57125317 71.73630887 223.51201153 75.26172066 C219.220837 80.17144286 214.81961545 84.98484383 210.44951153 89.82422066 C207.05418715 93.58910416 203.6670531 97.35803116 200.34013653 101.18359566 C196.68705696 105.37912787 192.93258104 109.47983119 189.18388653 113.58984566 C187.19114699 115.78962307 185.22425512 118.00564784 183.27763653 120.24609566 C179.64697945 124.42477644 175.91045076 128.5042587 172.17998028 132.59375191 C170.20821808 134.77070561 168.26398315 136.9644824 166.34013653 139.18359566 C163.37880142 142.59298146 160.33611166 145.92403876 157.27763653 149.24609566 C153.63349324 153.20471751 150.03849936 157.19786326 146.51201153 161.26172066 C142.19911312 166.19629812 137.77830844 171.03688466 133.37919903 175.89453316 C129.41941766 180.27528796 125.51067344 184.67011493 121.77763653 189.24609566 C117.8605652 186.39731651 114.84916768 183.16574246 111.72294903 179.51172066 C109.6509475 177.09854619 107.53364809 174.73228617 105.40263653 172.37109566 C104.64208965 171.52804878 103.88154278 170.68500191 103.09794903 169.81640816 C102.3322459 168.96820503 101.56654278 168.12000191 100.77763653 167.24609566 C98.52966676 164.74921574 96.28255646 162.25156415 94.03544903 159.75390816 C92.51055408 158.06016671 90.98448251 156.36748397 89.45732403 154.67578316 C86.05890721 150.90872451 82.66947043 147.13693979 79.34013653 143.30859566 C75.68584791 139.11167485 71.9301868 135.00956806 68.17998028 130.89843941 C66.20821808 128.7214857 64.26398315 126.52770891 62.34013653 124.30859566 C59.37880142 120.89920985 56.33611166 117.56815256 53.27763653 114.24609566 C49.63349324 110.2874738 46.03849936 106.29432806 42.51201153 102.23047066 C38.98264188 98.19236304 35.37193022 94.22635377 31.77763653 90.24609566 C23.20590357 80.75390816 23.20590357 80.75390816 19.40263653 76.37109566 C16.41846967 72.94277373 13.35575169 69.58988765 10.27763653 66.24609566 C6.63409015 62.28806921 3.0370995 58.29789776 -0.48408222 54.23047066 C-2.51203661 51.91541261 -4.5866196 49.64565963 -6.65986347 47.37109566 C-21.72121798 30.65918176 -21.72121798 30.65918176 -21.46064472 18.37109566 C-20.92797288 11.38523545 -17.39103154 8.14587727 -12.35517597 3.76172066 C-8.38562849 0.94087007 -4.83417915 -0.00410546 0 0 Z " fill="#FFFFFF" transform="translate(21.222363471984863,49.75390434265137)"/>
</svg>
